<?xml version="1.0" encoding="UTF-8"?>
<svg xmlns="http://www.w3.org/2000/svg" viewBox="0 0 3094.98 1714.05">
  <defs>
    <style>
      .cls-1 {
        fill: #f7a491;
      }

      .cls-2, .cls-3 {
        fill: #fff;
      }

      .cls-4 {
        isolation: isolate;
      }

      .cls-5 {
        mix-blend-mode: multiply;
        opacity: .3;
      }

      .cls-5, .cls-6 {
        fill: #9bc1f9;
      }

      .cls-7 {
        fill: #50bfa5;
      }

      .cls-8 {
        fill: #96d9c9;
      }

      .cls-3 {
        opacity: .8;
      }

      .cls-9 {
        fill: #5183bf;
      }

      .cls-6 {
        opacity: .6;
      }

      .cls-10 {
        fill: #eab054;
      }

      .cls-11 {
        fill: #eafcfc;
      }

      .cls-12 {
        fill: #f7cc7f;
      }

      .cls-13 {
        fill: #f47458;
      }

      .cls-14 {
        fill: #e59f39;
      }

      .cls-15 {
        fill: #3c8f7c;
      }

      .cls-16 {
        fill: #184655;
      }

      .cls-17 {
        fill: #0e2e35;
      }
    </style>
  </defs>
  <g class="cls-4">
    <g id="Layer_2" data-name="Layer 2">
      <g id="Layer_1-2" data-name="Layer 1">
        <g>
          <path class="cls-11" d="M803.4,3.11c437.28-25.29,895.75,106.43,828.36,297.38-67.39,190.95,360.3-67.82,530.97,1.02,121.51,49.01,72.94,198.22,131.72,258.34,134.79,137.85,272.63-35.74,444.18,68.41,171.55,104.15,100.21,1078.14,30.37,1078l-2645.4-4.83-31.65,1.02s-194.01-279.78-18.38-443.16c175.63-163.38,55.04-238.08,33.7-301.22-24.51-72.5-81.69-199.11,167.46-292.03,249.15-92.92,184.82-295.1,178.69-336.96-6.13-41.86-87.3-300.68,349.99-325.97h0Z"/>
          <rect class="cls-6" x="2151.29" y="150.58" width="200.4" height="1551.12"/>
          <rect class="cls-6" x="1871.43" y="623.71" width="200.4" height="1077.99"/>
          <rect class="cls-6" x="2435.19" y="486.64" width="200.4" height="1215.06"/>
          <rect class="cls-6" x="1591.57" y="438.86" width="200.4" height="1262.84"/>
          <rect class="cls-6" x="1311.71" y="813.28" width="200.4" height="888.41"/>
          <g>
            <rect class="cls-5" x="2151.29" y="508.07" width="200.4" height="1193.63"/>
            <rect class="cls-5" x="1871.43" y="872.15" width="200.4" height="829.54"/>
            <rect class="cls-5" x="2435.19" y="766.68" width="200.4" height="935.02"/>
            <rect class="cls-5" x="1591.57" y="729.91" width="200.4" height="971.79"/>
            <rect class="cls-5" x="1311.71" y="1018.04" width="200.4" height="683.66"/>
          </g>
          <polygon class="cls-9" points="2732.99 162.45 2573.3 283.21 2634.21 287.1 2253.03 957.97 2041.98 641.55 1743.41 1337.96 1551.37 1065.19 1312.01 1403.54 1327.07 1464.1 1551.27 1148.72 1754.27 1437.05 2051.74 743.19 2256.52 1050.21 2678.53 307.47 2717.71 349.61 2732.99 162.45"/>
          <g>
            <path class="cls-15" d="M1129.44,1253.19c-229.15-182.48-421.69-418.49-567.47-695.62-105.06,84.39-210.12,168.79-315.18,253.18,168.56,320.42,391.17,593.32,656.12,804.3,75.51-120.62,151.02-241.24,226.52-361.86Z"/>
            <path class="cls-8" d="M512.62,623.74c-65.26,53.26-130.52,106.52-195.78,159.78,15.54,28.97,9.9,68.06-13.25,87.89,148.18,262,333.88,489.64,550.12,674.36,17.68-26.53,51.01-31.68,74.95-12.25,47.61-74.89,95.23-149.79,142.84-224.68-22.04-17.88-25.18-54.43-7.51-80.95-189.9-162.21-352.97-362.11-483.09-592.19-23.14,19.81-53.97,14.7-68.28-11.96Z"/>
            <g>
              <path class="cls-7" d="M776.36,1222.67c48.93-63.14,48.46-156.29,2.31-212.01-46.28-55.58-125.34-58.2-180.04-2.01-54.61,56.07-59.83,155.75-7.8,218.32,51.96,62.65,136.71,58.74,185.54-4.3Z"/>
              <path class="cls-15" d="M773.12,1043.49c-6.15,6.83-12.3,13.65-18.45,20.47,14.71,26.96,11.6,54.82-4.26,73.02-16.01,18.33-33.94,20.03-61.26,3.83-19.85-11.21-29.38-14.52-35.43-7.97-5.12,5.53-6.81,15.57,4.03,29.28,5.89,7.43,11.78,12.4,16.99,15.91,6.95,4.67,9.14,15.22,4.86,23.33h0c-4.14,7.84-12.88,10.45-19.58,5.68-5.47-3.9-11.45-9.22-17.89-16.61-5.32,5.87-10.64,11.74-15.96,17.61-5.57-6.99-11.11-14.01-16.61-21.07,5.79-6.27,11.58-12.55,17.37-18.83-14.05-27.13-11.26-54.1,5.05-71.21,18-18.9,38.81-13.1,62.67,1.87,16.54,10.32,26.13,11.95,32.98,4.33,7.22-8.05,4.87-20.32-4.23-31.92-6.25-7.97-13.49-14.04-20.64-18.54-7.02-4.42-8.93-15.24-4.21-23.32,.17-.3,.34-.59,.52-.89,4.28-7.34,12.47-9.82,18.71-5.75,7.48,4.89,15.53,11.86,22.64,20.14,5.77-6.29,11.55-12.59,17.32-18.89,5.1,6.54,10.22,13.04,15.38,19.51Z"/>
              <path class="cls-7" d="M956.89,1385.15c-52.22-44.71-102.54-92.1-150.84-142.01-8.28,10.77-16.56,21.53-24.83,32.29,48.98,50.61,100,98.66,152.95,144,7.57-11.43,15.15-22.86,22.72-34.28Z"/>
            </g>
          </g>
          <g>
            <path class="cls-15" d="M1082.72,1179.62c-287.82-36.5-570.1-132.8-831.96-283.83-49.78,116.63-99.56,233.27-149.34,349.91,302.77,174.62,629.14,285.96,961.93,328.17,6.46-131.42,12.91-262.83,19.37-394.25Z"/>
            <path class="cls-8" d="M240.35,971.63c-30.51,73.12-61.03,146.23-91.54,219.35,27.64,15.65,41.86,49.33,31.49,76.01,256.53,137.89,528.79,230.77,806.52,275.15,2.35-29.42,28.71-49.25,58.96-45.15,4.64-81.94,9.28-163.88,13.92-245.83-27.84-3.78-48.44-31.3-46.1-60.69-243.89-38.97-482.97-120.54-708.25-241.62-10.36,26.66-39.59,37.18-65.02,22.78Z"/>
            <g>
              <path class="cls-7" d="M761.8,1322.29c11.53-73.23-34.43-146.94-101.68-169.35-67.28-22.24-137.09,13.06-157.01,83.51-19.91,70.31,24.31,151.88,100,176.95,75.67,25.16,147.2-18,158.69-91.11Z"/>
              <path class="cls-15" d="M671.37,1181.62c-1.99,8.32-3.98,16.64-5.97,24.97,25.93,14.44,36.85,38.02,32.01,59.97-4.91,22.11-19.62,31.93-51.22,32-22.68,.48-32.57,2.36-34.6,10.42-1.73,6.81,1.71,15.58,17.81,21.33,8.74,3.11,16.27,4.28,22.5,4.59,8.3,.42,15.36,7.76,15.62,16.22h0c.25,8.18-6.05,14.38-14.19,13.76-6.65-.51-14.43-1.91-23.63-4.72-1.74,7.17-3.48,14.35-5.22,21.52-8.24-2.91-16.48-5.87-24.7-8.87,1.95-7.72,3.9-15.43,5.85-23.15-25.44-14.89-36.21-37.62-30.45-58.9,6.35-23.51,27.23-28.74,55.22-28.14,19.38,.37,28.49-2.87,30.7-12.16,2.32-9.8-5.72-18.43-19.27-23.34-9.31-3.37-18.56-4.76-26.95-4.96-8.25-.19-15.19-7.87-15.05-16.52,0-.32,0-.63,.01-.95,.12-7.85,6-13.69,13.4-13.41,8.87,.34,19.26,2.07,29.47,5.28,1.93-7.72,3.85-15.45,5.78-23.18,7.61,2.78,15.24,5.52,22.87,8.22Z"/>
            </g>
          </g>
          <path class="cls-17" d="M950.55,598.76c-6.98-2.34-13.85-4.99-20.49-8.18-7.5-3.61-17.22-7.83-23.36-8.77-12.93-1.99-35.13-.66-47.39,12.59-15.28,16.52-42.42,2.98-36.95,89.48,6.19,97.91,60.82,87.16,62.14,85.51,1.33-1.66,48.72-62.64,48.72-62.64,0,0,16.57,36.13,16.57,34.8s84.61-114.66,.77-142.8Z"/>
          <g>
            <path class="cls-15" d="M1008.13,1244.24c-226.45,89.47-476.31,130.37-736.41,120.55,17.26,110.67,34.52,221.35,51.79,332.03,300.73,11.36,589.62-35.93,851.45-139.38-55.61-104.4-111.22-208.8-166.83-313.19Z"/>
            <path class="cls-8" d="M298.95,1427.77c11.33,69.1,22.65,138.19,33.98,207.29,27.32,.81,53.14,21.08,57.83,45.98,250.19,1.83,491.18-37.62,713.89-116.86-11.79-23.74-1.69-49.88,22.24-59.08-34.23-65.35-68.45-130.69-102.68-196.04-22.02,8.46-49.66-4.42-61.44-28.14-195.58,69.59-407.2,104.23-626.91,102.62,4.69,24.88-11.78,44.98-36.92,44.24Z"/>
            <g>
              <path class="cls-7" d="M839.8,1485.99c-25.21-61.42-92.52-99.69-151.8-89.54-59.23,10.31-93.88,66.19-76.07,128.89,17.77,62.59,87.42,107.66,154.07,96.11,66.68-11.47,98.99-74.16,73.8-135.46Z"/>
              <path class="cls-15" d="M709.35,1414.06c2.37,7.26,4.74,14.52,7.11,21.78,25.52,.58,44.3,14.37,50.85,33.34,6.57,19.13,.36,32.75-22.63,45.73-16.3,9.65-22.64,15.15-20.43,22.23,1.86,5.98,8.39,11.36,22.77,9.23,7.8-1.16,13.82-3.35,18.5-5.65,6.24-3.07,14.75-.28,18.83,6.17h0c3.94,6.23,2.19,13.61-4.02,16.46-5.08,2.33-11.39,4.43-19.38,6.01,2.03,6.27,4.05,12.53,6.07,18.8-7.34,1.12-14.7,2.2-22.06,3.24-2.12-6.77-4.24-13.55-6.37-20.32-25.37-1.12-43.65-14.31-49.22-33.16-6.16-20.8,6.65-33.39,27.32-44.38,14.29-7.64,19.44-13.87,16.79-21.97-2.81-8.54-12.62-11.93-24.75-10.18-8.33,1.2-15.71,3.9-21.91,7.19-6.1,3.23-14.68,.12-18.55-6.63-.14-.25-.28-.49-.42-.74-3.51-6.13-1.91-13.05,3.61-15.86,6.62-3.37,14.98-6.28,23.9-7.96-2.14-6.77-4.28-13.54-6.43-20.31,6.82-.96,13.64-1.96,20.44-3Z"/>
              <path class="cls-7" d="M1031.69,1423.26c-53.86,19.09-108.86,35.71-164.84,49.82,4.33,10.43,8.65,20.85,12.98,31.28,56.77-14.31,112.53-31.16,167.15-50.52-5.09-10.19-10.19-20.39-15.28-30.58Z"/>
            </g>
          </g>
          <g>
            <path class="cls-14" d="M634.51,1609.24v81.08c0,13.11,146.22,23.73,326.59,23.73s326.59-10.63,326.59-23.73v-81.08H634.51Z"/>
            <g>
              <path class="cls-10" d="M870.86,1713.14v-103.89h-236.35v81.08c0,10.83,99.87,19.97,236.35,22.82Z"/>
              <path class="cls-10" d="M881.86,1713.35c25.37,.46,51.91,.7,79.24,.7,40.72,0,79.7-.54,115.65-1.53v-103.28h-194.9v104.11Z"/>
              <path class="cls-10" d="M1089.84,1712.14c116.36-3.63,197.85-12.03,197.85-21.82v-81.08h-197.85v102.89Z"/>
            </g>
            <ellipse class="cls-14" cx="961.1" cy="1608.38" rx="326.59" ry="23.73"/>
            <path class="cls-12" d="M1230.04,1608.38c0,9.09-120.41,16.46-268.94,16.46s-268.94-7.37-268.94-16.46,120.41-16.45,268.94-16.45,268.94,7.37,268.94,16.45Z"/>
          </g>
          <g>
            <path class="cls-14" d="M578.63,1523.45v81.08c0,13.11,146.22,23.73,326.59,23.73s326.59-10.63,326.59-23.73v-81.08H578.63Z"/>
            <g>
              <path class="cls-10" d="M814.98,1627.34v-103.89h-236.35v81.08c0,10.83,99.87,19.97,236.35,22.81Z"/>
              <path class="cls-10" d="M825.98,1627.56c25.37,.46,51.91,.7,79.24,.7,40.72,0,79.7-.54,115.65-1.53v-103.28h-194.9v104.11Z"/>
              <path class="cls-10" d="M1033.96,1626.34c116.36-3.63,197.86-12.03,197.86-21.82v-81.08h-197.86v102.89Z"/>
            </g>
            <ellipse class="cls-14" cx="905.22" cy="1522.59" rx="326.59" ry="23.73"/>
            <path class="cls-12" d="M1174.17,1522.59c0,9.09-120.41,16.45-268.94,16.45s-268.94-7.37-268.94-16.45,120.41-16.46,268.94-16.46,268.94,7.37,268.94,16.46Z"/>
          </g>
          <g>
            <path class="cls-14" d="M615.86,1435.38v81.08c0,13.11,146.22,23.73,326.59,23.73s326.59-10.62,326.59-23.73v-81.08H615.86Z"/>
            <g>
              <path class="cls-10" d="M852.21,1539.27v-103.89h-236.35v81.08c0,10.83,99.87,19.97,236.35,22.81Z"/>
              <path class="cls-10" d="M863.21,1539.48c25.37,.46,51.91,.7,79.24,.7,40.72,0,79.7-.54,115.65-1.53v-103.28h-194.9v104.11Z"/>
              <path class="cls-10" d="M1071.19,1538.27c116.36-3.63,197.85-12.03,197.85-21.82v-81.08h-197.85v102.89Z"/>
            </g>
            <ellipse class="cls-14" cx="942.45" cy="1434.51" rx="326.59" ry="23.73"/>
            <path class="cls-12" d="M1211.4,1434.51c0,9.09-120.41,16.45-268.94,16.45s-268.94-7.37-268.94-16.45,120.41-16.46,268.94-16.46,268.94,7.37,268.94,16.46Z"/>
          </g>
          <g>
            <path class="cls-14" d="M578.63,1348.51v81.08c0,13.11,146.22,23.73,326.59,23.73s326.59-10.63,326.59-23.73v-81.08H578.63Z"/>
            <g>
              <path class="cls-10" d="M814.98,1452.4v-103.89h-236.35v81.08c0,10.83,99.87,19.97,236.35,22.82Z"/>
              <path class="cls-10" d="M825.98,1452.61c25.37,.46,51.91,.7,79.24,.7,40.72,0,79.7-.54,115.65-1.53v-103.28h-194.9v104.11Z"/>
              <path class="cls-10" d="M1033.96,1451.4c116.36-3.63,197.86-12.03,197.86-21.82v-81.08h-197.86v102.89Z"/>
            </g>
            <ellipse class="cls-14" cx="905.22" cy="1347.65" rx="326.59" ry="23.73"/>
            <path class="cls-12" d="M1174.17,1347.65c0,9.09-120.41,16.46-268.94,16.46s-268.94-7.37-268.94-16.46,120.41-16.45,268.94-16.45,268.94,7.37,268.94,16.45Z"/>
          </g>
          <g>
            <path class="cls-14" d="M2865.27,1602.32v77.97c0,12.6-140.61,22.82-314.07,22.82s-314.07-10.22-314.07-22.82v-77.97h628.14Z"/>
            <g>
              <path class="cls-10" d="M2637.98,1702.22v-99.91h227.29v77.97c0,10.42-96.04,19.2-227.29,21.94Z"/>
              <path class="cls-10" d="M2627.41,1702.43c-24.4,.44-49.92,.68-76.2,.68-39.16,0-76.65-.52-111.22-1.47v-99.32h187.42v100.11Z"/>
              <path class="cls-10" d="M2427.4,1701.27c-111.9-3.49-190.27-11.57-190.27-20.98v-77.97h190.27v98.95Z"/>
            </g>
            <ellipse class="cls-14" cx="2551.2" cy="1601.49" rx="314.07" ry="22.82"/>
            <path class="cls-12" d="M2292.57,1601.49c0,8.74,115.79,15.82,258.63,15.82s258.63-7.08,258.63-15.82-115.79-15.82-258.63-15.82-258.63,7.08-258.63,15.82Z"/>
          </g>
          <g>
            <path class="cls-14" d="M2919.01,1519.81v77.97c0,12.6-140.61,22.82-314.07,22.82s-314.07-10.22-314.07-22.82v-77.97h628.14Z"/>
            <g>
              <path class="cls-10" d="M2691.72,1619.72v-99.91h227.29v77.97c0,10.42-96.04,19.2-227.29,21.94Z"/>
              <path class="cls-10" d="M2681.14,1619.93c-24.4,.44-49.92,.68-76.2,.68-39.16,0-76.65-.52-111.22-1.47v-99.32h187.42v100.11Z"/>
              <path class="cls-10" d="M2481.13,1618.76c-111.9-3.49-190.27-11.57-190.27-20.98v-77.97h190.27v98.95Z"/>
            </g>
            <ellipse class="cls-14" cx="2604.94" cy="1518.98" rx="314.07" ry="22.82"/>
            <ellipse class="cls-12" cx="2604.94" cy="1518.98" rx="258.63" ry="15.82"/>
          </g>
          <g>
            <path class="cls-14" d="M2883.21,1435.11v77.97c0,12.6-140.61,22.82-314.07,22.82s-314.07-10.22-314.07-22.82v-77.97h628.14Z"/>
            <g>
              <path class="cls-10" d="M2655.92,1535.02v-99.91h227.29v77.97c0,10.42-96.04,19.2-227.29,21.94Z"/>
              <path class="cls-10" d="M2645.34,1535.23c-24.4,.44-49.92,.68-76.2,.68-39.16,0-76.65-.52-111.22-1.47v-99.32h187.42v100.11Z"/>
              <path class="cls-10" d="M2445.33,1534.06c-111.9-3.49-190.27-11.57-190.27-20.98v-77.97h190.27v98.95Z"/>
            </g>
            <ellipse class="cls-14" cx="2569.13" cy="1434.29" rx="314.07" ry="22.82"/>
            <ellipse class="cls-12" cx="2569.13" cy="1434.29" rx="258.63" ry="15.82"/>
          </g>
          <g>
            <path class="cls-14" d="M2919.01,1351.58v77.97c0,12.6-140.61,22.82-314.07,22.82s-314.07-10.22-314.07-22.82v-77.97h628.14Z"/>
            <g>
              <path class="cls-10" d="M2691.72,1451.48v-99.91h227.29v77.97c0,10.42-96.04,19.2-227.29,21.94Z"/>
              <path class="cls-10" d="M2681.14,1451.69c-24.4,.44-49.92,.68-76.2,.68-39.16,0-76.65-.52-111.22-1.47v-99.32h187.42v100.11Z"/>
              <path class="cls-10" d="M2481.13,1450.53c-111.9-3.49-190.27-11.57-190.27-20.98v-77.97h190.27v98.95Z"/>
            </g>
            <ellipse class="cls-14" cx="2604.94" cy="1350.75" rx="314.07" ry="22.82"/>
            <ellipse class="cls-12" cx="2604.94" cy="1350.75" rx="258.63" ry="15.82"/>
          </g>
          <g>
            <path class="cls-14" d="M3065.14,1256.83l-18.87,65.87c-3.05,10.65-124.31-14.75-270.85-56.72-146.53-41.97-262.85-84.63-259.8-95.28l18.87-65.87,530.65,152Z"/>
            <g>
              <path class="cls-10" d="M2848.95,1286.23l24.17-84.4,192.01,55-18.87,65.87c-2.52,8.8-85.78-7.02-197.32-36.46Z"/>
              <path class="cls-10" d="M2839.97,1283.85c-20.72-5.53-42.34-11.51-64.54-17.87-33.08-9.48-64.62-18.99-93.6-28.16l24.03-83.9,158.33,45.35-24.23,84.58Z"/>
              <path class="cls-10" d="M2671.29,1234.47c-93.69-30.03-157.94-55.82-155.66-63.76l18.87-65.87,160.74,46.04-23.94,83.59Z"/>
            </g>
            <path class="cls-14" d="M2534.69,1104.14c-3.05,10.65,113.27,53.31,259.8,95.28,146.53,41.97,267.8,67.37,270.85,56.72,3.05-10.65-113.27-53.31-259.8-95.28-146.53-41.97-267.8-67.37-270.85-56.72Z"/>
            <path class="cls-12" d="M2581.53,1117.55c-2.12,7.38,93.99,41.39,214.66,75.95,120.67,34.56,220.2,56.6,222.32,49.21,2.12-7.38-93.99-41.39-214.66-75.95-120.67-34.56-220.2-56.6-222.32-49.22Z"/>
          </g>
          <g>
            <path class="cls-14" d="M2893.54,803.5l20.09,65.5c3.25,10.59-112.26,55.4-257.98,100.09-145.73,44.69-266.5,72.34-269.75,61.75l-20.09-65.5,527.73-161.84Z"/>
            <g>
              <path class="cls-10" d="M2728.32,946l-25.74-83.94,190.95-58.56,20.09,65.5c2.68,8.75-75.74,40.88-185.3,76.99Z"/>
              <path class="cls-10" d="M2719.49,948.9c-20.38,6.66-41.77,13.43-63.85,20.2-32.9,10.09-64.53,19.31-93.82,27.42l-25.59-83.44,157.46-48.29,25.79,84.11Z"/>
              <path class="cls-10" d="M2551.15,999.45c-94.91,25.9-162.83,39.3-165.26,31.4l-20.09-65.5,159.85-49.02,25.5,83.13Z"/>
            </g>
            <path class="cls-14" d="M2365.59,964.65c3.25,10.59,124.02-17.06,269.74-61.75,145.73-44.69,261.23-89.5,257.98-100.09-3.25-10.59-124.02,17.06-269.74,61.75-145.73,44.69-261.23,89.5-257.98,100.09Z"/>
            <path class="cls-12" d="M2412.17,950.37c2.25,7.34,101.36-16.54,221.36-53.34,120-36.8,215.46-72.59,213.21-79.93-2.25-7.34-101.36,16.54-221.36,53.34-120,36.8-215.46,72.59-213.21,79.93Z"/>
          </g>
          <path class="cls-1" d="M1171.52,1618.48s7.76,41.19,7.77,41.28c.43,5.37,.27,18.94,1.43,23.62,4.36,17.61,78.45-25.2,59.01-28.64-1.76-.31-14.51-13.21-17.43-18.68-5.08-9.5-9.75-27.21-9.75-27.21l-41.03,9.62Z"/>
          <path class="cls-13" d="M1236.06,1652.17s-19.13,4.74-28.86,5.71c-9.73,.97-22.23-14.15-29.21-11.29-7.68,3.15-11.87,51.12-11.87,51.12,0,0,122.21,5.57,151.09-2.41,11.44-3.16-43.13-28.56-81.16-43.13Z"/>
          <path class="cls-1" d="M1341.93,1616.6s7.76,41.19,7.77,41.28c.43,5.37,.27,18.94,1.43,23.62,4.36,17.61,77.09-22.38,57.65-25.82-1.76-.31-13.14-16.03-16.06-21.49-5.08-9.5-9.75-27.21-9.75-27.21l-41.03,9.62Z"/>
          <path class="cls-13" d="M1404.59,1652.17s-19.13,4.74-28.86,5.71c-9.73,.97-22.23-14.15-29.21-11.29-7.68,3.15-11.87,51.12-11.87,51.12,0,0,122.21,5.57,151.09-2.41,11.44-3.16-43.13-28.56-81.16-43.13Z"/>
          <path class="cls-17" d="M918.2,1204.23l222.33-51.57s99.7-26.36,123.77,4.58c24.07,30.94,126.27,457.99,126.27,457.99,0,0-52.72,4.58-56.16,2.29l-123.4-219.03c-11.74-20.83-19.46-43.69-22.76-67.37l-8.75-62.72-90.54,26.36s-104.29,22.92-146.69-3.44c-42.4-26.36-24.07-87.1-24.07-87.1Z"/>
          <path class="cls-10" d="M1003.58,820.93c3.51,.14,13.13,3.35,27.21,29.86,17.97,33.85,44.23,136.09,44.23,136.09l-78.4,29.1-10.07-21.34-16.59-164.29s32.64-9.45,33.62-9.41Z"/>
          <path class="cls-12" d="M899.94,806.19c22.42,.03,77.89,6.55,103.63,14.75,0,0,18.91,162-17.03,285.1-8.04,27.56,6.65,114.23,6.65,114.23l-232.3-3.06s27.52-209.54,17.15-243.39c-10.37-33.85-10.61-151.8-10.61-151.8,0,0,1.59-.25,52.19-8.96,23.6-4.07,56.38-6.9,80.31-6.87Z"/>
          <path class="cls-1" d="M764.91,840.03c21.72-8.12,32.35,186.92,35.27,267.19,38.46,3.69,105.5,.03,122.2-1.22,7.85-.59,25.95-7.2,33.76-8.21,8-1.04,15.25-1.59,19.19-.91,1.44,.25,41.54,16.59,44.97,20.17,4.25,4.44,15.75,15.65,13.81,20.5-1.94,4.85-22.11-13.51-22.11-13.51l-9.86-5.51c12.27,11.95,35.68,27.69,32.31,33.42-3.29,5.59-24.41-10.38-39.46-21.27,12.91,11.62,28.95,32.42,25.25,35.66-3.32,2.91-21.56-21.16-41.06-28.09-7.22-2.57-14.43,4.54-20.11,5.4-4.18,.63-10.63,1.98-14.72,.82l-19.58-1.89c-7.19,.65-8.9,.81-16.16,2.35-8.43,1.79-22.26,3.67-33,6.29-61.82,15.05-82.44,22.04-101.37,22.03-57.33-.03-60.66-314.03-9.33-333.22Z"/>
          <path class="cls-10" d="M723.69,1023.14c-4.07-82.23-3.47-183.58,42.78-200.87,18.25-6.82,50.42,34.2,44.64,202.54-24.69,2.03-60.94,3.67-87.41-1.67Z"/>
          <path class="cls-13" d="M1238.86,972.89l-218.86,14.3c-5.79,.38-10.78,4.22-12.62,9.72l-56.65,168.76-120.66,7.88c-3.37,.22-5.93,3.13-5.71,6.5h0c.22,3.37,3.13,5.93,6.51,5.71l343.41-22.43c9.44-.62,17.64-6.72,20.94-15.58l57.98-155.59c3.62-9.72-3.98-19.94-14.33-19.26Z"/>
          <path class="cls-2" d="M1129.8,1077.17c-.44,7.53-6.14,13.33-12.73,12.95-6.6-.38-11.59-6.79-11.16-14.33,.44-7.53,6.14-13.33,12.73-12.95,6.6,.38,11.59,6.79,11.16,14.33Z"/>
          <path class="cls-16" d="M761.04,1211.93l242.28-41.83s104.75-15.96,128.82,14.98c24.07,30.94,93.97,432.05,93.97,432.05,0,0-52.72,4.58-56.16,2.29-2.66-1.78-66.49-135.5-95.15-195.75-9.1-19.12-15.5-39.41-19.02-60.29l-9.21-54.59-30.49,10.5c-53.58,18.44-110.66,24.84-166.89,17.86-23.54-2.92-45.51-7.95-59.14-16.42-42.4-26.36-29-108.8-29-108.8Z"/>
          <path class="cls-1" d="M909.08,776.63l4.72,34.99s10.56,50.4-3.03,60.12c-13.59,9.72-57.8-61.56-57.8-61.56l4.67-88.65,51.44,55.1Z"/>
          <path class="cls-13" d="M856.14,750.26c11.23,30.24,37.96,48.82,56.94,56.03l-4-29.66-51.44-55.1-1.51,28.73Z"/>
          <path class="cls-1" d="M906.29,625.06c28.8-4.63,54.63,18.45,53.91,47.18-.31,12.49-1.34,28.08-3.94,44.87-6.26,40.39-33.91,75.95-52.19,72.77-18.28-3.18-64.28-38.01-56.18-95.49,5-35.48,28.19-64.48,58.41-69.34Z"/>
          <path class="cls-1" d="M860.57,701.26c-1.54,8.88-8.68,15.06-15.94,13.8-7.26-1.26-11.9-9.48-10.36-18.36,1.54-8.88,8.68-15.06,15.94-13.8,7.26,1.26,11.9,9.48,10.36,18.36Z"/>
          <path class="cls-17" d="M850.21,682.9s22.1,5.47,30.31-8.69c8.2-14.17,37.53-44.74,74.82-32.07,37.29,12.68-32.81-30.82-35.79-30.82s-38.78-.25-38.78-.25c0,0-27.59,22.62-28.59,25.11-.99,2.49-8.95,29.58-8.95,29.58l6.98,17.15Z"/>
          <g>
            <rect class="cls-7" x="1933.31" y="1499.3" width="550.21" height="200.25" transform="translate(4416.84 3198.85) rotate(180)"/>
            <g>
              <rect class="cls-8" x="1933.31" y="1528.48" width="550.21" height="25.76" transform="translate(4416.84 3082.73) rotate(180)"/>
              <rect class="cls-8" x="1933.31" y="1578.8" width="550.21" height="25.76" transform="translate(4416.84 3183.37) rotate(180)"/>
              <rect class="cls-8" x="1933.31" y="1629.13" width="550.21" height="25.76" transform="translate(4416.84 3284.01) rotate(180)"/>
              <rect class="cls-8" x="1933.31" y="1673.79" width="550.21" height="25.76" transform="translate(4416.84 3373.35) rotate(180)"/>
              <rect class="cls-12" x="2138.14" y="1499.3" width="114.43" height="200.25" transform="translate(4390.7 3198.85) rotate(180)"/>
            </g>
            <rect class="cls-15" x="2476.85" y="1499.3" width="83.09" height="200.25" transform="translate(5036.79 3198.85) rotate(180)"/>
          </g>
          <rect class="cls-17" x="54.59" y="1696.71" width="3040.39" height="17.35"/>
          <path class="cls-3" d="M1346.04,193.16c-5.57-24.26-27.28-42.35-53.23-42.35-4.76,0-9.38,.61-13.79,1.76-12.81-27.39-40.6-46.36-72.83-46.36-8.33,0-16.37,1.27-23.93,3.62-17.35-28.73-48.87-47.94-84.88-47.94-42.84,0-79.33,27.19-93.16,65.26-9.79-5.46-21.05-8.58-33.06-8.58-37.55,0-68,30.44-68,68,0,2.23,.11,4.43,.32,6.6h442.53Z"/>
          <path class="cls-3" d="M1545.46,463.03c-4.22-18.36-20.64-32.05-40.28-32.05-3.6,0-7.1,.46-10.43,1.33-9.69-20.73-30.72-35.08-55.11-35.08-6.31,0-12.39,.96-18.11,2.74-13.13-21.74-36.98-36.28-64.23-36.28-32.42,0-60.04,20.58-70.5,49.38-7.41-4.13-15.93-6.49-25.02-6.49-28.42,0-51.46,23.04-51.46,51.46,0,1.69,.09,3.35,.25,4.99h334.89Z"/>
          <path class="cls-3" d="M612.91,425.1c3.68-16.01,18-27.95,35.12-27.95,3.14,0,6.19,.4,9.1,1.16,8.45-18.07,26.79-30.59,48.06-30.59,5.5,0,10.8,.84,15.79,2.39,11.45-18.96,32.25-31.64,56.01-31.64,28.27,0,52.35,17.94,61.48,43.06,6.46-3.6,13.89-5.66,21.81-5.66,24.78,0,44.87,20.09,44.87,44.87,0,1.47-.08,2.92-.21,4.35h-292.03Z"/>
          <g>
            <path class="cls-7" d="M1231.13,653.53l3.9,47.45,27.56-31.04,89.14-73-76.01,23.95s-37.42,18.18-39.14,20.58c-1.72,2.4-5.44,12.07-5.44,12.07Z"/>
            <polygon class="cls-8" points="1190.74 633.15 1351.73 596.94 1231.13 653.53 1190.74 633.15"/>
            <polygon class="cls-8" points="1293.05 688.67 1243.42 663.91 1351.73 596.94 1293.05 688.67"/>
          </g>
          <g>
            <path class="cls-15" d="M1212.34,679.88c7.43-2.8,12.91-3.4,12.97-3.41l-.36-3.45c-.24,.03-5.98,.66-13.82,3.61l1.22,3.25Z"/>
            <path class="cls-15" d="M1132.89,960.32c6.52-5.96,12.4-12.38,17.46-19.09l2.77,2.09c-5.19,6.88-11.2,13.46-17.88,19.56l-2.34-2.56Zm30.86-41.16c1.7-3.57,3.27-7.29,4.65-11.06,1.57-4.27,2.96-8.73,4.13-13.25l3.36,.87c-1.2,4.64-2.62,9.21-4.23,13.58-1.42,3.87-3.03,7.69-4.78,11.35l-3.13-1.49Zm14.01-75.86l3.47-.08c.21,9.42-.06,18.05-.85,26.4l-3.45-.33c.78-8.21,1.05-16.72,.84-26Zm-4.94-51.99l3.43-.49c1.45,10.15,2.49,18.44,3.26,26.1l-3.45,.35c-.77-7.61-1.8-15.85-3.25-25.96Zm-3.88-26.12c-1.38-9.35-1.82-18.21-1.31-26.33l3.46,.22c-.49,7.88-.06,16.5,1.28,25.6l.03,.2-3.44,.47-.02-.16Zm4.36-52.39c3.49-8.54,8.56-15.98,15.06-22.12l2.38,2.52c-6.14,5.8-10.92,12.84-14.23,20.91l-3.21-1.31Z"/>
          </g>
        </g>
      </g>
    </g>
  </g>
</svg>