<?xml version="1.0" encoding="UTF-8"?>
<svg id="Layer_2" data-name="Layer 2" xmlns="http://www.w3.org/2000/svg" viewBox="0 0 671.53 451.03">
  <defs>
    <style>
      .cls-1, .cls-2, .cls-3, .cls-4 {
        fill-rule: evenodd;
      }

      .cls-1, .cls-5 {
        fill: #e8505b;
      }

      .cls-6, .cls-2 {
        fill: #fff;
      }

      .cls-7 {
        fill: #fafafa;
      }

      .cls-8 {
        opacity: .5;
      }

      .cls-9 {
        fill: #aa6550;
      }

      .cls-10 {
        opacity: .6;
      }

      .cls-11 {
        fill: #f5f5f5;
      }

      .cls-12 {
        fill: #455a64;
      }

      .cls-13, .cls-3 {
        fill: #e0e0e0;
      }

      .cls-14 {
        opacity: .8;
      }

      .cls-15 {
        fill: #b78876;
      }

      .cls-16 {
        opacity: .4;
      }

      .cls-17 {
        opacity: .3;
      }

      .cls-18 {
        fill: #ebebeb;
      }

      .cls-4, .cls-19 {
        fill: #263238;
      }
    </style>
  </defs>
  <g id="Background_Complete" data-name="Background Complete">
    <path class="cls-3" d="M247.41,337.85c3.38,.42,6.65,1.3,9.72,2.57l7.15-5.99,12.28,9.34-3.87,8.48c2.04,2.63,3.76,5.54,5.07,8.69l9.29,.82,2.07,15.29-8.73,3.26c-.42,3.38-1.3,6.65-2.57,9.72l5.99,7.15-9.34,12.27-8.48-3.87c-2.63,2.04-5.54,3.76-8.69,5.07l-.82,9.28-15.29,2.08-3.26-8.73c-3.38-.42-6.65-1.3-9.72-2.57l-7.15,5.99-12.28-9.34,3.87-8.48c-2.04-2.63-3.76-5.54-5.07-8.69l-9.28-.82-2.07-15.29,8.73-3.26c.42-3.38,1.3-6.65,2.57-9.72l-5.99-7.15,9.34-12.27,8.49,3.87c2.63-2.04,5.54-3.76,8.69-5.07l.82-9.28,15.29-2.07,3.26,8.73h0Zm-4.58,21.08c-10.51,.38-17.99,10.2-15.55,20.43,1.8,7.57,8.85,12.94,16.63,12.65,10.51-.38,17.98-10.2,15.54-20.43-1.8-7.57-8.85-12.94-16.62-12.66Z"/>
    <g>
      <path class="cls-13" d="M84.94,113.88v-44.42c24.37,0,44.42,20.05,44.42,44.42s-20.05,44.42-44.42,44.42-43.86-19.42-44.41-43.4l44.41-1.03Z"/>
      <path class="cls-11" d="M74.11,101.91l-44.42,1c0-11.57,4.52-23.69,12.59-31.98,8.07-8.29,19.58-13.11,31.15-13.43l.69,44.41Z"/>
    </g>
    <path class="cls-3" d="M573.83,8.73c3.38,.42,6.65,1.3,9.72,2.57l7.15-5.99,12.28,9.34-3.87,8.48c2.04,2.63,3.76,5.54,5.07,8.69l9.29,.82,2.07,15.29-8.73,3.26c-.42,3.38-1.3,6.65-2.57,9.72l5.99,7.15-9.34,12.27-8.48-3.87c-2.63,2.04-5.54,3.76-8.69,5.06l-.82,9.28-15.29,2.08-3.26-8.73c-3.38-.42-6.65-1.3-9.72-2.57l-7.15,5.99-12.28-9.34,3.87-8.48c-2.04-2.63-3.76-5.54-5.07-8.69l-9.28-.82-2.07-15.29,8.73-3.26c.42-3.38,1.3-6.65,2.57-9.72l-5.99-7.15,9.34-12.27,8.49,3.87c2.63-2.04,5.54-3.76,8.69-5.07l.82-9.28,15.29-2.07,3.26,8.73h0Zm-4.58,21.08c-10.51,.38-17.99,10.2-15.55,20.43,1.8,7.57,8.85,12.94,16.63,12.65,10.51-.38,17.98-10.2,15.54-20.43-1.8-7.57-8.85-12.94-16.62-12.66Z"/>
  </g>
  <g id="Floor">
    <path class="cls-19" d="M671.53,435.55c0,.14-150.34,.26-335.75,.26s-335.78-.12-335.78-.26,150.31-.26,335.78-.26,335.75,.12,335.75,.26Z"/>
  </g>
  <g id="Nuts">
    <g>
      <g>
        <path class="cls-1" d="M110.3,221.15c2.82,1.47,5.4,3.3,7.68,5.41l8.2-2.92,7.71,12.17-6.14,6.17c.94,2.97,1.49,6.07,1.61,9.26l7.86,3.73-3.16,14.06-8.71,.02c-1.47,2.82-3.3,5.4-5.41,7.68l2.92,8.21-12.17,7.71-6.17-6.14c-2.97,.94-6.07,1.49-9.26,1.61l-3.73,7.87-14.06-3.15-.02-8.71c-2.82-1.47-5.4-3.3-7.68-5.41l-8.21,2.92-7.71-12.17,6.15-6.17c-.94-2.97-1.49-6.07-1.61-9.25l-7.86-3.74,3.15-14.06,8.71-.02c1.47-2.82,3.3-5.4,5.41-7.68l-2.92-8.21,12.17-7.71,6.17,6.15c2.97-.94,6.07-1.49,9.26-1.61l3.73-7.86,14.06,3.15,.02,8.71h0Zm-12.4,16.55c-8.33-1.87-16.6,3.37-18.47,11.7-1.87,8.33,3.37,16.6,11.7,18.47,8.33,1.87,16.6-3.37,18.47-11.7,1.87-8.33-3.37-16.6-11.7-18.47Z"/>
        <g class="cls-14">
          <path class="cls-2" d="M110.3,221.15c2.82,1.47,5.4,3.3,7.68,5.41l8.2-2.92,7.71,12.17-6.14,6.17c.94,2.97,1.49,6.07,1.61,9.26l7.86,3.73-3.16,14.06-8.71,.02c-1.47,2.82-3.3,5.4-5.41,7.68l2.92,8.21-12.17,7.71-6.17-6.14c-2.97,.94-6.07,1.49-9.26,1.61l-3.73,7.87-14.06-3.15-.02-8.71c-2.82-1.47-5.4-3.3-7.68-5.41l-8.21,2.92-7.71-12.17,6.15-6.17c-.94-2.97-1.49-6.07-1.61-9.25l-7.86-3.74,3.15-14.06,8.71-.02c1.47-2.82,3.3-5.4,5.41-7.68l-2.92-8.21,12.17-7.71,6.17,6.15c2.97-.94,6.07-1.49,9.26-1.61l3.73-7.86,14.06,3.15,.02,8.71h0Zm-12.4,16.55c-8.33-1.87-16.6,3.37-18.47,11.7-1.87,8.33,3.37,16.6,11.7,18.47,8.33,1.87,16.6-3.37,18.47-11.7,1.87-8.33-3.37-16.6-11.7-18.47Z"/>
        </g>
      </g>
      <g>
        <path class="cls-19" d="M122.8,347.55s1.26,.09,3.31,1.03c2,.93,4.84,2.97,6.59,6.67,.85,1.83,1.43,4.04,1.34,6.44-.1,2.38-.74,4.95-2.22,7.22-.71,1.15-1.62,2.21-2.69,3.13-1.06,.94-2.28,1.73-3.64,2.31-2.68,1.22-5.86,1.54-8.9,.88-3.04-.71-5.78-2.35-7.68-4.6-.97-1.1-1.75-2.34-2.3-3.64-.57-1.29-.95-2.64-1.1-3.98-.37-2.68,.16-5.28,1.08-7.48,.94-2.21,2.42-3.96,3.97-5.25,3.17-2.6,6.6-3.23,8.8-3.21,2.25,.02,3.43,.48,3.43,.48-.01,.1-1.22-.24-3.42-.16-2.16,.08-5.46,.79-8.45,3.34-1.47,1.27-2.85,2.96-3.72,5.08-.85,2.1-1.33,4.58-.96,7.12,.15,1.27,.51,2.54,1.06,3.76,.53,1.23,1.27,2.4,2.19,3.43,1.81,2.12,4.39,3.66,7.26,4.33,2.88,.62,5.88,.33,8.41-.82,1.28-.54,2.45-1.28,3.45-2.17,1.02-.87,1.89-1.86,2.57-2.95,1.42-2.14,2.05-4.58,2.17-6.85,.11-2.28-.41-4.41-1.2-6.18-1.62-3.59-4.3-5.63-6.21-6.63-1.96-1.01-3.19-1.22-3.17-1.31Z"/>
        <path class="cls-19" d="M134.01,332.59s-.02-.16-.03-.49c0-.37-.02-.86-.03-1.49-.02-1.37-.05-3.34-.08-5.89l.1,.12c-3.26-.71-7.55-1.65-12.73-2.78l.23-.11c-1.01,2.16-2.14,4.56-3.35,7.13l-.06,.13h-.14c-2.65,.12-5.46,.57-8.3,1.48l-.15,.05-.11-.11c-1.75-1.73-3.63-3.6-5.6-5.54l.35,.04c-3.46,2.2-7.14,4.54-10.99,7l.13-.37c.82,2.3,1.73,4.83,2.66,7.42l.07,.19-.14,.15c-1.78,1.92-3.48,4.27-4.83,6.88l-.1,.19h-.21c-2.44,0-5.13,.02-7.87,.03l.35-.28c-.89,4-1.85,8.31-2.84,12.72l-.2-.42c2.22,1.05,4.65,2.2,7.12,3.37l.21,.1v.23c.11,2.63,.57,5.49,1.46,8.27l.07,.22-.17,.17c-1.74,1.75-3.64,3.66-5.56,5.59l.05-.49c2.21,3.49,4.58,7.22,6.98,11.01l-.47-.16c2.34-.84,4.87-1.74,7.42-2.64l.23-.08,.18,.17c1.96,1.81,4.3,3.5,6.85,4.83h0s0,0,0,0c.1,.16-.21-.35,.22,.36h0v.05s0,.06,0,.06v.12s0,.25,0,.25v.5s0,.99,0,.99v1.97c0,1.31,0,2.62,.01,3.93l-.31-.39c4.3,.97,8.54,1.92,12.72,2.86l-.45,.22c1.14-2.39,2.27-4.77,3.38-7.11l.1-.22h.24c2.84-.12,5.63-.61,8.27-1.44l.22-.07,.17,.17c1.89,1.88,3.74,3.73,5.58,5.56l-.47-.05c3.76-2.38,7.43-4.7,11.02-6.96l-.15,.44c-.89-2.52-1.77-4.99-2.63-7.43l-.07-.21,.15-.16c1.95-2.1,3.58-4.43,4.85-6.86l.1-.19h.21c2.7,0,5.32,0,7.87,0l-.32,.26c1.01-4.47,1.97-8.69,2.88-12.71l.17,.34c-2.5-1.19-4.84-2.31-7.11-3.4l-.16-.08v-.17c-.12-3.01-.64-5.77-1.43-8.3l-.05-.15,.11-.11c2.03-2.02,3.85-3.84,5.58-5.56l-.03,.29c-2.68-4.28-4.97-7.92-6.93-11.04l.21,.07c-2.97,1.04-5.41,1.89-7.44,2.59l-.07,.03-.06-.05c-2.09-1.95-3.87-3.14-5.06-3.9-.58-.35-1.03-.62-1.35-.82-.31-.18-.46-.27-.45-.28,0,0,.17,.07,.48,.22,.31,.16,.78,.4,1.39,.76,1.22,.72,3.03,1.88,5.16,3.82l-.13-.03c2.02-.73,4.45-1.62,7.4-2.69l.13-.05,.08,.12c1.98,3.1,4.3,6.73,7.02,10.98l.1,.16-.13,.14c-1.71,1.73-3.53,3.57-5.54,5.6l.06-.27c.82,2.57,1.37,5.38,1.49,8.44l-.16-.25c2.27,1.07,4.62,2.18,7.12,3.36l.22,.1-.05,.24c-.89,4.02-1.83,8.25-2.83,12.72l-.06,.26h-.27c-2.56,.01-5.17,.02-7.87,.03l.31-.19c-1.29,2.49-2.95,4.87-4.94,7.03l.08-.36c.87,2.43,1.75,4.9,2.65,7.42l.1,.28-.25,.16c-3.58,2.27-7.25,4.6-11,6.99l-.26,.16-.22-.22c-1.84-1.83-3.7-3.68-5.59-5.55l.39,.1c-2.71,.86-5.56,1.37-8.47,1.48l.34-.22c-1.11,2.35-2.24,4.72-3.37,7.12l-.14,.29-.31-.07c-4.18-.94-8.42-1.89-12.72-2.85l-.31-.07v-.32c0-1.3,0-2.61,0-3.93v-1.98s0-.99,0-.99v-.5s0-.25,0-.25v-.12s0-.06,0-.06v-.05h0c.43,.7,.12,.19,.21,.35h0s0,0,0,0c-2.62-1.36-5.02-3.09-7.03-4.95l.41,.08c-2.55,.91-5.08,1.81-7.42,2.64l-.3,.11-.17-.27c-2.4-3.79-4.76-7.53-6.97-11.01l-.17-.27,.22-.22c1.92-1.93,3.82-3.83,5.56-5.58l-.09,.39c-.9-2.85-1.37-5.78-1.47-8.47l.22,.33c-2.46-1.17-4.9-2.33-7.11-3.39l-.27-.13,.07-.29c1-4.41,1.97-8.72,2.87-12.72l.06-.28h.29c2.74,0,5.43,0,7.87,0l-.31,.19c1.39-2.67,3.14-5.06,4.96-7.01l-.07,.34c-.92-2.6-1.81-5.13-2.63-7.43l-.08-.24,.21-.13c3.87-2.44,7.55-4.76,11.03-6.95l.19-.12,.16,.16c1.95,1.96,3.83,3.84,5.57,5.58l-.27-.06c2.89-.9,5.76-1.35,8.44-1.44l-.2,.13c1.23-2.56,2.37-4.95,3.41-7.1l.07-.15,.16,.04c5.17,1.19,9.45,2.18,12.7,2.93l.1,.02v.1c-.02,2.53-.04,4.49-.06,5.84-.01,.64-.02,1.14-.03,1.51,0,.34-.02,.52-.03,.52Z"/>
      </g>
      <g>
        <path class="cls-1" d="M59.45,303.98c1.64,.86,3.14,1.92,4.47,3.15l4.78-1.7,4.49,7.09-3.58,3.59c.54,1.73,.87,3.54,.94,5.39l4.58,2.17-1.84,8.18h-5.07c-.86,1.65-1.92,3.15-3.15,4.48l1.7,4.78-7.09,4.49-3.59-3.58c-1.73,.54-3.54,.87-5.39,.94l-2.17,4.58-8.19-1.84v-5.07c-1.65-.86-3.15-1.92-4.48-3.15l-4.78,1.7-4.49-7.09,3.58-3.59c-.54-1.73-.87-3.54-.94-5.39l-4.58-2.17,1.84-8.19h5.07c.86-1.65,1.92-3.15,3.15-4.48l-1.7-4.78,7.09-4.49,3.59,3.58c1.73-.54,3.54-.87,5.39-.94l2.17-4.58,8.18,1.84v5.07h.01Zm-7.22,9.63c-4.85-1.09-9.66,1.96-10.75,6.81-1.09,4.85,1.96,9.66,6.81,10.75,4.85,1.09,9.66-1.96,10.75-6.81,1.09-4.85-1.96-9.66-6.81-10.75Z"/>
        <g class="cls-16">
          <path class="cls-2" d="M59.45,303.98c1.64,.86,3.14,1.92,4.47,3.15l4.78-1.7,4.49,7.09-3.58,3.59c.54,1.73,.87,3.54,.94,5.39l4.58,2.17-1.84,8.18h-5.07c-.86,1.65-1.92,3.15-3.15,4.48l1.7,4.78-7.09,4.49-3.59-3.58c-1.73,.54-3.54,.87-5.39,.94l-2.17,4.58-8.19-1.84v-5.07c-1.65-.86-3.15-1.92-4.48-3.15l-4.78,1.7-4.49-7.09,3.58-3.59c-.54-1.73-.87-3.54-.94-5.39l-4.58-2.17,1.84-8.19h5.07c.86-1.65,1.92-3.15,3.15-4.48l-1.7-4.78,7.09-4.49,3.59,3.58c1.73-.54,3.54-.87,5.39-.94l2.17-4.58,8.18,1.84v5.07h.01Zm-7.22,9.63c-4.85-1.09-9.66,1.96-10.75,6.81-1.09,4.85,1.96,9.66,6.81,10.75,4.85,1.09,9.66-1.96,10.75-6.81,1.09-4.85-1.96-9.66-6.81-10.75Z"/>
        </g>
      </g>
    </g>
    <path class="cls-4" d="M585.56,162.31c2.32,.29,4.56,.89,6.67,1.76l4.9-4.11,8.42,6.41-2.65,5.82c1.4,1.8,2.58,3.8,3.48,5.96l6.37,.56,1.42,10.49-5.99,2.24c-.29,2.32-.89,4.56-1.76,6.67l4.11,4.91-6.41,8.42-5.82-2.65c-1.8,1.4-3.8,2.58-5.96,3.48l-.56,6.37-10.49,1.42-2.24-5.99c-2.32-.29-4.56-.89-6.67-1.76l-4.91,4.11-8.42-6.41,2.66-5.82c-1.4-1.8-2.58-3.8-3.48-5.96l-6.37-.56-1.42-10.49,5.99-2.24c.29-2.32,.89-4.56,1.76-6.67l-4.11-4.91,6.41-8.42,5.82,2.65c1.8-1.4,3.8-2.58,5.96-3.48l.56-6.37,10.49-1.42,2.24,5.99h0Zm-3.15,14.47c-7.22,.26-12.35,7-10.67,14.02,1.24,5.2,6.08,8.88,11.41,8.68,7.21-.26,12.34-7,10.67-14.02-1.23-5.2-6.07-8.88-11.41-8.69Z"/>
    <g>
      <path class="cls-19" d="M626.65,99.54s1.19-.35,3.39-.18c2.16,.17,5.46,1.08,8.33,3.88,1.41,1.39,2.7,3.23,3.43,5.46,.72,2.22,1.01,4.8,.43,7.39-.26,1.3-.74,2.58-1.4,3.79-.65,1.22-1.51,2.37-2.55,3.36-2.05,2.03-4.86,3.41-7.88,3.85-3.03,.39-6.11-.19-8.63-1.61-1.27-.68-2.41-1.55-3.36-2.56-.97-.99-1.77-2.1-2.37-3.28-1.26-2.34-1.66-4.91-1.56-7.24,.11-2.35,.87-4.46,1.86-6.18,2.02-3.47,4.96-5.22,7-5.96,2.08-.75,3.32-.73,3.32-.73,.02,.1-1.21,.19-3.2,1.02-1.96,.81-4.75,2.58-6.63,5.95-.92,1.67-1.61,3.7-1.69,5.94-.07,2.22,.34,4.66,1.55,6.87,.57,1.12,1.34,2.16,2.26,3.09,.91,.95,1.98,1.77,3.19,2.41,2.38,1.33,5.29,1.87,8.15,1.5,2.86-.42,5.51-1.71,7.45-3.62,.99-.93,1.81-2.02,2.43-3.17,.64-1.14,1.1-2.36,1.35-3.59,.58-2.45,.32-4.91-.34-7.04-.67-2.14-1.88-3.91-3.21-5.27-2.71-2.74-5.87-3.71-7.97-3.97-2.14-.26-3.35-.03-3.36-.13Z"/>
      <path class="cls-19" d="M631.85,81.96s-.07-.14-.2-.44c-.13-.33-.31-.78-.54-1.36-.48-1.25-1.18-3.05-2.09-5.39l.13,.08c-3.24,.46-7.5,1.06-12.65,1.79l.17-.18c-.2,2.33-.41,4.92-.65,7.69v.14s-.14,.05-.14,.05c-2.39,1.01-4.83,2.39-7.13,4.19l-.12,.1-.14-.06c-2.19-.99-4.57-2.07-7.04-3.18l.34-.09c-2.43,3.21-5.01,6.61-7.72,10.19v-.39c1.53,1.83,3.23,3.85,4.96,5.91l.13,.15-.08,.18c-.98,2.37-1.74,5.11-2.09,7.97l-.02,.2-.19,.07c-2.24,.84-4.71,1.77-7.23,2.71l.22-.38c.54,3.98,1.13,8.27,1.73,12.66l-.33-.32c2.4,.21,5.03,.44,7.69,.67l.23,.02,.09,.21c.99,2.38,2.39,4.86,4.15,7.11l.14,.18-.1,.21c-1,2.2-2.1,4.6-3.2,7.03l-.12-.47c3.22,2.45,6.67,5.07,10.17,7.74h-.49c1.87-1.56,3.89-3.25,5.92-4.95l.18-.15,.22,.09c2.42,1,5.14,1.75,7.95,2.1h0s0,0,0,0c.14,.11-.32-.25,.32,.25h0s0,.02,0,.02v.03s.03,.06,.03,.06l.04,.11,.09,.23,.17,.46,.34,.91,.68,1.81c.45,1.21,.9,2.41,1.35,3.61l-.42-.25c4.28-.58,8.5-1.15,12.67-1.72l-.34,.35c.23-2.59,.46-5.15,.68-7.69l.02-.23,.22-.09c2.57-1.07,4.97-2.47,7.11-4.14l.18-.14,.21,.1c2.38,1.09,4.72,2.15,7.03,3.21l-.45,.11c2.65-3.47,5.23-6.86,7.75-10.16v.45c-1.67-2.01-3.32-3.99-4.94-5.93l-.14-.16,.08-.2c1.08-2.6,1.78-5.29,2.12-7.96l.03-.21,.19-.07c2.48-.92,4.89-1.82,7.24-2.69l-.21,.35c-.59-4.46-1.16-8.66-1.69-12.67l.27,.26c-2.7-.24-5.24-.47-7.69-.7l-.17-.02-.07-.16c-1.13-2.72-2.55-5.09-4.14-7.15l-.1-.12,.07-.14c1.17-2.55,2.23-4.85,3.23-7.02l.07,.28c-3.93-3.02-7.27-5.59-10.14-7.79h.22c-2.38,1.96-4.33,3.57-5.95,4.92l-.06,.05-.07-.03c-2.59-1.08-4.63-1.57-5.98-1.86-.65-.12-1.16-.22-1.52-.29-.35-.06-.51-.09-.5-.1,0,0,.18,0,.51,.04,.34,.04,.86,.1,1.54,.23,1.36,.25,3.42,.69,6.05,1.75l-.13,.02c1.61-1.36,3.54-3,5.89-5l.11-.09,.11,.09c2.88,2.17,6.25,4.71,10.2,7.7l.15,.11-.08,.17c-.98,2.18-2.02,4.48-3.18,7.04l-.03-.27c1.63,2.08,3.09,4.48,4.25,7.25l-.24-.17c2.45,.21,4.99,.43,7.69,.66l.24,.02,.03,.24c.55,4,1.13,8.21,1.74,12.66l.04,.26-.25,.09c-2.35,.88-4.75,1.78-7.23,2.72l.22-.28c-.34,2.73-1.05,5.49-2.14,8.15l-.06-.36c1.63,1.94,3.28,3.91,4.97,5.91l.19,.22-.18,.23c-2.51,3.31-5.09,6.7-7.73,10.18l-.18,.24-.27-.12c-2.31-1.05-4.65-2.12-7.03-3.2l.39-.05c-2.2,1.71-4.65,3.15-7.28,4.25l.24-.32c-.22,2.54-.45,5.1-.67,7.69l-.03,.31-.31,.04c-4.16,.57-8.39,1.14-12.67,1.72l-.31,.04-.11-.29c-.45-1.2-.9-2.4-1.35-3.61l-.68-1.81-.34-.91-.17-.46-.09-.23-.04-.11-.02-.06v-.03s-.02-.01-.02-.01h0c.64,.5,.18,.13,.32,.25h0s0,0,0,0c-2.88-.36-5.67-1.13-8.15-2.15l.4-.06c-2.03,1.7-4.05,3.39-5.92,4.96l-.24,.2-.25-.19c-3.5-2.66-6.95-5.29-10.17-7.74l-.25-.19,.13-.28c1.11-2.43,2.2-4.83,3.21-7.03l.05,.39c-1.8-2.31-3.23-4.85-4.24-7.29l.31,.23c-2.66-.24-5.3-.47-7.69-.69l-.29-.03-.04-.29c-.59-4.4-1.17-8.69-1.7-12.67l-.04-.28,.26-.1c2.52-.94,4.99-1.86,7.24-2.69l-.22,.28c.37-2.93,1.16-5.72,2.16-8.14l.05,.33c-1.73-2.07-3.42-4.09-4.95-5.93l-.16-.19,.15-.2c2.72-3.56,5.32-6.95,7.76-10.15l.14-.18,.2,.09c2.46,1.13,4.83,2.22,7.02,3.22l-.27,.03c2.35-1.82,4.83-3.2,7.27-4.21l-.14,.19c.25-2.77,.49-5.36,.71-7.69v-.16s.17-.02,.17-.02c5.16-.67,9.43-1.22,12.67-1.64h.1s.03,.08,.03,.08c.84,2.34,1.49,4.14,1.94,5.39,.21,.6,.37,1.06,.49,1.4,.11,.32,.16,.48,.15,.49Z"/>
    </g>
  </g>
  <g id="Screen">
    <g>
      <g>
        <g>
          <rect class="cls-7" x="117.76" y="43.35" width="460.04" height="318.02"/>
          <path class="cls-19" d="M577.8,361.38c0-1.72-.08-124.55-.21-318.02l.21,.21c-127.57,.01-287.21,.03-460,.05h-.04l.26-.26c0,113.6-.02,221.5-.02,318.02l-.24-.24c271.5,.14,457.92,.24,460.04,.24-2.11,0-188.54,.1-460.04,.24h-.24s0-.24,0-.24c0-96.52-.01-204.43-.02-318.02v-.26h.3c172.79,.02,332.43,.04,460,.05h.21v.21c-.13,193.47-.21,316.31-.21,318.02Z"/>
        </g>
        <rect class="cls-19" x="117.76" y="43.35" width="460.04" height="18.45"/>
        <path class="cls-6" d="M130.89,52.23c0,1.56-1.27,2.83-2.83,2.83s-2.83-1.27-2.83-2.83,1.27-2.83,2.83-2.83,2.83,1.27,2.83,2.83Z"/>
        <path class="cls-6" d="M141.11,52.23c0,1.56-1.27,2.83-2.83,2.83s-2.83-1.27-2.83-2.83,1.27-2.83,2.83-2.83,2.83,1.27,2.83,2.83Z"/>
        <path class="cls-6" d="M151.33,52.23c0,1.56-1.27,2.83-2.83,2.83s-2.83-1.27-2.83-2.83,1.27-2.83,2.83-2.83,2.83,1.27,2.83,2.83Z"/>
      </g>
      <g>
        <path class="cls-13" d="M561.34,341.39c0-1.15-.06-37.97-.15-103.3l.15,.15c-94.89,.02-249.88,.06-424.7,.11h-.03l.26-.26c0,35.39,0,69.96,0,103.3l-.26-.26c242.19,.15,422.19,.25,424.72,.26-2.53,0-182.53,.11-424.72,.26h-.26s0-.26,0-.26c0-33.34,0-67.91,0-103.3v-.26h.29c174.82,.04,329.8,.08,424.7,.11h.15v.15c-.1,65.33-.15,102.15-.15,103.3Z"/>
        <g>
          <path class="cls-13" d="M342.92,229.42s-.02-.9-.02-2.63c0-1.73-.01-4.3-.02-7.65-.01-6.7-.03-16.54-.05-29.13-.03-25.16-.06-61.28-.11-105.2l.21,.21c-57.17,.01-128.35,.03-205.33,.05h-.02l.26-.26c0,51.73-.02,100.83-.02,144.6l-.24-.24c60.63,.05,111.93,.09,148.09,.12,18.09,.03,32.39,.05,42.18,.06,4.89,.01,8.65,.02,11.2,.03,1.27,0,2.23,.01,2.89,.01,.65,0,.99,.01,.99,.01,0,0-.32,0-.96,.01-.65,0-1.6,0-2.86,.01-2.54,0-6.28,.02-11.15,.03-9.77,.01-24.06,.04-42.13,.06-36.2,.03-87.56,.07-148.25,.12h-.24s0-.24,0-.24c0-43.77-.02-92.87-.02-144.6v-.26h.28c76.98,.02,148.17,.04,205.33,.05h.21v.21c-.05,43.97-.08,80.14-.11,105.33-.02,12.57-.04,22.39-.05,29.08-.01,3.33-.02,5.88-.02,7.61,0,1.72-.02,2.59-.02,2.59Z"/>
          <path class="cls-5" d="M159.77,202.07l14.79-21.39c3.01-4.35,9-5.4,13.3-2.32l2.08,1.49c5.16,3.69,12.42,1.36,14.47-4.64l7.18-21.01c2.92-8.54,15.01-8.54,17.93,0l3.47,10.17c2.79,8.15,14.13,8.65,17.62,.77l3.01-6.8c3.01-6.78,12.29-7.63,16.48-1.51h0c4.4,6.44,14.26,5.1,16.78-2.28l3.36-9.83c3.09-9.03,16.08-8.34,18.2,.96l12.85,56.4s-161.08-.45-161.53,0Z"/>
          <g class="cls-17">
            <path d="M159.77,202.07l14.79-21.39c3.01-4.35,9-5.4,13.3-2.32l2.08,1.49c5.16,3.69,12.42,1.36,14.47-4.64l7.18-21.01c2.92-8.54,15.01-8.54,17.93,0l3.47,10.17c2.79,8.15,14.13,8.65,17.62,.77l3.01-6.8c3.01-6.78,12.29-7.63,16.48-1.51h0c4.4,6.44,14.26,5.1,16.78-2.28l3.36-9.83c3.09-9.03,16.08-8.34,18.2,.96l12.85,56.4s-161.08-.45-161.53,0Z"/>
          </g>
          <path class="cls-5" d="M159.35,202.62l12.02-35.16c2.82-8.24,14.42-8.38,17.43-.21l5.76,15.58c2.49,6.74,11.38,8.19,15.89,2.59l4.66-5.8c3.1-3.85,8.68-4.59,12.67-1.67l10.86,7.94c1.59,1.16,3.5,1.78,5.46,1.78h13.82c1.96,0,3.88,.62,5.46,1.78l10.28,7.52c4.22,3.08,10.15,2.07,13.1-2.25l9.65-14.12c.12-.18,.25-.35,.38-.52,3.87-4.9,11.64-3.87,14.45,1.71l10.33,20.48s-162.22-.33-162.22,.33Z"/>
          <path class="cls-5" d="M321.52,202.29l-12.56-10.22c-17.22-12.67-25.39,11.44-38.93-6.65l-4.66-5.8c-3.1-3.85-8.68-4.59-12.67-1.67l-5.4,3.95c-5.13,3.76-11.33,5.78-17.69,5.78h-7.05c-1.96,0-3.88,.62-5.46,1.78l-10.28,7.52c-4.22,3.08-7.16,3.5-13.91-2.17,0,0-7.33-5.96-7.5-6.17-3.59-4.37-11.1-4.37-14.33,0-.78,1.05-1.59,1.98-2.47,2.95l-9.7,10.69s162.61-.67,162.61,0Z"/>
          <g class="cls-17">
            <path class="cls-6" d="M321.52,202.29l-12.56-10.22c-17.22-12.67-25.39,11.44-38.93-6.65l-4.66-5.8c-3.1-3.85-8.68-4.59-12.67-1.67l-5.4,3.95c-5.13,3.76-11.33,5.78-17.69,5.78h-7.05c-1.96,0-3.88,.62-5.46,1.78l-10.28,7.52c-4.22,3.08-7.16,3.5-13.91-2.17,0,0-7.33-5.96-7.5-6.17-3.59-4.37-11.1-4.37-14.33,0-.78,1.05-1.59,1.98-2.47,2.95l-9.7,10.69s162.61-.67,162.61,0Z"/>
          </g>
          <path class="cls-19" d="M203.95,121.11c0,.14-5.75,.26-12.83,.26s-12.83-.12-12.83-.26,5.74-.26,12.83-.26,12.83,.12,12.83,.26Z"/>
          <rect class="cls-5" x="171.09" y="118.92" width="4.39" height="4.39"/>
          <path class="cls-19" d="M252.37,121.11c0,.14-5.75,.26-12.83,.26s-12.83-.12-12.83-.26,5.74-.26,12.83-.26,12.83,.12,12.83,.26Z"/>
          <rect class="cls-5" x="219.51" y="118.92" width="4.39" height="4.39"/>
          <path class="cls-19" d="M300.79,121.11c0,.14-5.75,.26-12.83,.26s-12.83-.12-12.83-.26,5.74-.26,12.83-.26,12.83,.12,12.83,.26Z"/>
          <rect class="cls-5" x="267.93" y="118.92" width="4.39" height="4.39"/>
        </g>
        <g>
          <path class="cls-5" d="M301.42,323.73l10.57-15.07c1.23-1.75,3.67-2.14,5.38-.85l5.56,4.2c1.82,1.37,4.42,.84,5.56-1.13l16.04-27.78c1.34-2.32,4.6-2.55,6.25-.45l10.01,12.7c1.62,2.05,4.77,1.89,6.17-.31l7.32-11.5c1.53-2.4,5.05-2.32,6.47,.14l6.04,10.47c1.42,2.46,4.94,2.54,6.47,.14l20.66-32.38c1.47-2.3,4.82-2.34,6.34-.07l34.13,51.06c1.37,2.05,4.3,2.26,5.95,.44l20.74-22.83c1.46-1.6,3.96-1.66,5.49-.13l16.49,16.55c1.76,1.77,4.72,1.38,5.96-.78l29.51-51.11c1.94-3.36,7.07-1.98,7.07,1.89v66.8h-244.2Z"/>
          <path class="cls-19" d="M545,332.08s-.01-.1-.02-.29c0-.21,0-.51-.02-.9,0-.83-.02-2.05-.03-3.73l.07,.07c-14.1,.11-63.16,.19-121.43,.19s-107.34-.08-121.44-.19l.07-.07c-.02,1.68-.03,2.9-.03,3.73,0,.39-.01,.68-.02,.9,0,.2-.01,.29-.02,.29s-.01-.1-.02-.29c0-.21,0-.51-.02-.9,0-.83-.02-2.05-.03-3.73v-.07s.07,0,.07,0c14.1-.11,63.15-.19,121.44-.19s107.32,.08,121.43,.19h.07s0,.07,0,.07c-.01,1.68-.03,2.9-.03,3.73,0,.39-.01,.69-.02,.9,0,.2-.01,.29-.02,.29Z"/>
          <path class="cls-19" d="M329.12,331.69c-.14,0-.26-.46-.26-1.03s.12-1.03,.26-1.03,.26,.46,.26,1.03-.12,1.03-.26,1.03Z"/>
          <path class="cls-19" d="M356.11,331.69c-.14,0-.26-.46-.26-1.03s.12-1.03,.26-1.03,.26,.46,.26,1.03-.12,1.03-.26,1.03Z"/>
          <path class="cls-19" d="M383.09,331.69c-.14,0-.26-.46-.26-1.03s.12-1.03,.26-1.03,.26,.46,.26,1.03-.12,1.03-.26,1.03Z"/>
          <path class="cls-19" d="M410.08,331.69c-.14,0-.26-.46-.26-1.03s.12-1.03,.26-1.03,.26,.46,.26,1.03-.12,1.03-.26,1.03Z"/>
          <path class="cls-19" d="M437.06,331.69c-.14,0-.26-.46-.26-1.03s.12-1.03,.26-1.03,.26,.46,.26,1.03-.12,1.03-.26,1.03Z"/>
          <path class="cls-19" d="M464.05,331.69c-.14,0-.26-.46-.26-1.03s.12-1.03,.26-1.03,.26,.46,.26,1.03-.12,1.03-.26,1.03Z"/>
          <path class="cls-19" d="M491.03,331.69c-.14,0-.26-.46-.26-1.03s.12-1.03,.26-1.03,.26,.46,.26,1.03-.12,1.03-.26,1.03Z"/>
          <path class="cls-19" d="M518.01,331.69c-.14,0-.26-.46-.26-1.03s.12-1.03,.26-1.03,.26,.46,.26,1.03-.12,1.03-.26,1.03Z"/>
        </g>
        <g>
          <path class="cls-13" d="M562.68,196.29s-.01-.6-.02-1.75c0-1.16-.01-2.87-.02-5.1-.01-4.48-.03-11.08-.05-19.56-.02-16.96-.06-41.48-.1-71.75l.19,.19c-53.51,.02-125.86,.04-205.34,.07h-.01l.26-.26c0,34.56,0,67.77-.01,98.17l-.25-.25c59.83,.05,111.13,.09,147.49,.12,18.19,.03,32.64,.05,42.56,.07,4.95,.01,8.77,.02,11.36,.03,1.29,0,2.27,.01,2.94,.01,.66,0,1.01,.02,1.01,.02,0,0-.32,.01-.98,.02-.66,0-1.63,0-2.91,.01-2.58,0-6.38,.02-11.31,.03-9.9,.02-24.33,.04-42.5,.07-36.4,.03-87.76,.07-147.66,.12h-.25s0-.25,0-.25c0-30.39,0-63.61-.01-98.17v-.26h.27c79.48,.03,151.82,.05,205.34,.07h.19s0,.19,0,.19c-.04,30.32-.08,54.88-.1,71.87-.02,8.47-.04,15.05-.05,19.52,0,2.22-.02,3.92-.02,5.07,0,1.14-.02,1.71-.02,1.71Z"/>
          <g>
            <g>
              <path class="cls-13" d="M516.2,140.93h-141.46c-1.3,0-2.36-1.06-2.36-2.36s1.06-2.36,2.36-2.36h141.46c1.3,0,2.36,1.06,2.36,2.36s-1.06,2.36-2.36,2.36Z"/>
              <path class="cls-13" d="M516.2,122.26h-141.46c-1.3,0-2.36-1.06-2.36-2.36s1.06-2.36,2.36-2.36h141.46c1.3,0,2.36,1.06,2.36,2.36s-1.06,2.36-2.36,2.36Z"/>
              <path class="cls-12" d="M438.66,140.93h-63.92c-1.3,0-2.36-1.06-2.36-2.36s1.06-2.36,2.36-2.36h63.92c1.3,0,2.36,1.06,2.36,2.36s-1.06,2.36-2.36,2.36Z"/>
            </g>
            <g>
              <path class="cls-19" d="M534.14,139.58h-1.04v1.35h-.76v-1.35h-3.06v-.55l2.81-3.6h.85l-2.7,3.47h2.11v-1.19h.74v1.19h1.04v.68Z"/>
              <path class="cls-19" d="M538.44,139.28c0,.95-.68,1.71-2.08,1.71-.78,0-1.55-.25-2.02-.67l.36-.62c.37,.35,.98,.59,1.65,.59,.83,0,1.3-.38,1.3-.98s-.39-1.01-1.67-1.01h-1.25l.29-2.88h3.1v.68h-2.44l-.15,1.51h.61c1.64,0,2.29,.68,2.29,1.66Z"/>
              <path class="cls-19" d="M538.93,136.88c0-.9,.52-1.5,1.28-1.5s1.27,.6,1.27,1.5-.51,1.5-1.27,1.5-1.28-.61-1.28-1.5Zm2.05,0c0-.66-.29-1.05-.77-1.05s-.77,.4-.77,1.05,.3,1.05,.77,1.05,.77-.39,.77-1.05Zm2.55-1.45h.61l-3.76,5.5h-.6l3.76-5.5Zm-1.11,4.05c0-.9,.51-1.5,1.27-1.5s1.28,.6,1.28,1.5-.52,1.5-1.28,1.5-1.27-.61-1.27-1.5Zm2.04,0c0-.65-.3-1.05-.77-1.05s-.77,.39-.77,1.05,.29,1.05,.77,1.05,.77-.4,.77-1.05Z"/>
            </g>
          </g>
          <g>
            <g>
              <path class="cls-13" d="M516.2,158.22h-141.46c-1.3,0-2.36-1.06-2.36-2.36s1.06-2.36,2.36-2.36h141.46c1.3,0,2.36,1.06,2.36,2.36s-1.06,2.36-2.36,2.36Z"/>
              <path class="cls-12" d="M459.49,158.22h-84.6c-1.76,0-2.5-1.06-2.5-2.36s.75-2.36,1.66-2.36h84.6c1.66,0,2.71,1.06,2.71,2.36,0,1.93-1.79,2.36-1.87,2.36Z"/>
            </g>
            <g>
              <path class="cls-19" d="M533.36,152.72v.53l-2.22,4.97h-.83l2.18-4.82h-2.51v.98h-.75v-1.67h4.15Z"/>
              <path class="cls-19" d="M533.89,155.47c0-1.79,.96-2.81,2.25-2.81s2.24,1.02,2.24,2.81-.96,2.81-2.24,2.81-2.25-1.02-2.25-2.81Zm3.7,0c0-1.41-.6-2.11-1.45-2.11s-1.46,.71-1.46,2.11,.6,2.11,1.46,2.11,1.45-.71,1.45-2.11Z"/>
              <path class="cls-19" d="M539.05,154.17c0-.9,.52-1.5,1.28-1.5s1.27,.6,1.27,1.5-.51,1.5-1.27,1.5-1.28-.61-1.28-1.5Zm2.05,0c0-.66-.29-1.05-.77-1.05s-.77,.4-.77,1.05,.3,1.05,.77,1.05,.77-.39,.77-1.05Zm2.55-1.45h.61l-3.76,5.5h-.6l3.76-5.5Zm-1.11,4.05c0-.9,.51-1.5,1.27-1.5s1.28,.6,1.28,1.5-.52,1.5-1.28,1.5-1.27-.61-1.27-1.5Zm2.04,0c0-.65-.3-1.05-.77-1.05s-.77,.39-.77,1.05,.29,1.05,.77,1.05,.77-.4,.77-1.05Z"/>
            </g>
          </g>
          <g>
            <g>
              <path class="cls-13" d="M516.2,175.1h-141.46c-1.3,0-2.36-1.06-2.36-2.36s1.06-2.36,2.36-2.36h141.46c1.3,0,2.36,1.06,2.36,2.36s-1.06,2.36-2.36,2.36Z"/>
              <path class="cls-12" d="M427.29,175.1h-52.54c-1.3,0-2.36-1.06-2.36-2.36s1.06-2.36,2.36-2.36h52.54c1.3,0,2.36,1.06,2.36,2.36s-1.06,2.36-2.36,2.36Z"/>
            </g>
            <g>
              <path class="cls-19" d="M533.21,173.45c0,.95-.68,1.71-2.08,1.71-.78,0-1.55-.25-2.02-.67l.36-.62c.37,.35,.98,.59,1.65,.59,.83,0,1.3-.38,1.3-.98s-.39-1.01-1.67-1.01h-1.25l.29-2.88h3.1v.68h-2.44l-.15,1.51h.61c1.64,0,2.29,.68,2.29,1.66Z"/>
              <path class="cls-19" d="M533.86,172.34c0-1.79,.96-2.81,2.25-2.81s2.24,1.02,2.24,2.81-.96,2.81-2.24,2.81-2.25-1.02-2.25-2.81Zm3.7,0c0-1.41-.6-2.11-1.45-2.11s-1.46,.71-1.46,2.11,.6,2.11,1.46,2.11,1.45-.71,1.45-2.11Z"/>
              <path class="cls-19" d="M539.02,171.05c0-.9,.52-1.5,1.28-1.5s1.27,.6,1.27,1.5-.51,1.5-1.27,1.5-1.28-.61-1.28-1.5Zm2.05,0c0-.66-.29-1.05-.77-1.05s-.77,.4-.77,1.05,.3,1.05,.77,1.05,.77-.39,.77-1.05Zm2.55-1.45h.61l-3.76,5.5h-.6l3.76-5.5Zm-1.11,4.05c0-.9,.51-1.5,1.27-1.5s1.28,.61,1.28,1.5-.52,1.5-1.28,1.5-1.27-.61-1.27-1.5Zm2.04,0c0-.65-.3-1.05-.77-1.05s-.77,.39-.77,1.05,.29,1.05,.77,1.05,.77-.4,.77-1.05Z"/>
            </g>
          </g>
          <g>
            <path class="cls-5" d="M468.4,122.26h-93.65c-1.3,0-2.36-1.06-2.36-2.36s1.06-2.36,2.36-2.36h93.65c1.3,0,2.36,1.06,2.36,2.36s-1.06,2.36-2.36,2.36Z"/>
            <g>
              <path class="cls-19" d="M533.61,120.58c0,1.06-.86,1.74-1.95,1.74-1.48,0-2.31-.99-2.31-2.74,0-1.88,1.06-2.88,2.6-2.88,.52,0,1.01,.1,1.37,.32l-.3,.61c-.28-.19-.66-.26-1.05-.26-1.12,0-1.83,.7-1.83,2.07,0,.06,0,.13,0,.2,.31-.47,.9-.72,1.58-.72,1.09,0,1.89,.65,1.89,1.67Zm-.76,.03c0-.64-.49-1.06-1.26-1.06s-1.27,.46-1.27,1.07c0,.57,.46,1.06,1.3,1.06,.71,0,1.22-.42,1.22-1.07Z"/>
              <path class="cls-19" d="M534.2,119.51c0-1.79,.96-2.81,2.25-2.81s2.24,1.02,2.24,2.81-.96,2.81-2.24,2.81-2.25-1.02-2.25-2.81Zm3.7,0c0-1.41-.6-2.11-1.45-2.11s-1.46,.71-1.46,2.11,.6,2.11,1.46,2.11,1.45-.71,1.45-2.11Z"/>
              <path class="cls-19" d="M539.36,118.21c0-.9,.52-1.5,1.28-1.5s1.27,.6,1.27,1.5-.51,1.5-1.27,1.5-1.28-.61-1.28-1.5Zm2.05,0c0-.66-.29-1.05-.77-1.05s-.77,.4-.77,1.05,.3,1.05,.77,1.05,.77-.39,.77-1.05Zm2.55-1.45h.61l-3.76,5.5h-.6l3.76-5.5Zm-1.11,4.05c0-.9,.51-1.5,1.27-1.5s1.28,.6,1.28,1.5-.52,1.5-1.28,1.5-1.27-.61-1.27-1.5Zm2.04,0c0-.65-.3-1.05-.77-1.05s-.77,.39-.77,1.05,.29,1.05,.77,1.05,.77-.4,.77-1.05Z"/>
            </g>
          </g>
        </g>
        <path class="cls-13" d="M512.9,206.35c0,.14-34.62,.26-77.32,.26s-77.33-.12-77.33-.26,34.62-.26,77.33-.26,77.32,.12,77.32,.26Z"/>
        <path class="cls-13" d="M512.9,215.52c0,.14-34.62,.26-77.32,.26s-77.33-.12-77.33-.26,34.62-.26,77.33-.26,77.32,.12,77.32,.26Z"/>
        <path class="cls-13" d="M512.9,223.81c0,.14-34.62,.26-77.32,.26s-77.33-.12-77.33-.26,34.62-.26,77.33-.26,77.32,.12,77.32,.26Z"/>
        <g>
          <g>
            <g>
              <path class="cls-13" d="M164.89,317.74h0c-1.54,0-2.78-1.24-2.78-2.78v-52.15c0-1.54,1.24-2.78,2.78-2.78h0c1.54,0,2.78,1.24,2.78,2.78v52.15c0,1.54-1.24,2.78-2.78,2.78Z"/>
              <path class="cls-5" d="M164.89,317.98h0c-1.54,0-2.78-1.24-2.78-2.78v-33.62c0-1.53,1.24-2.78,2.78-2.78h0c1.54,0,2.78,1.24,2.78,2.78v33.62c0,1.54-1.24,2.78-2.78,2.78Z"/>
            </g>
            <g>
              <path class="cls-19" d="M163.14,320.16v4.64h-.48v-4.21h-1.09v-.42h1.57Z"/>
              <path class="cls-19" d="M164.24,322.48c0-1.48,.77-2.36,1.85-2.36s1.85,.88,1.85,2.36-.78,2.36-1.85,2.36-1.85-.88-1.85-2.36Zm3.21,0c0-1.24-.56-1.92-1.36-1.92s-1.36,.68-1.36,1.92,.56,1.92,1.36,1.92,1.36-.68,1.36-1.92Z"/>
            </g>
          </g>
          <g>
            <g>
              <path class="cls-13" d="M176,317.74h0c-1.54,0-2.78-1.24-2.78-2.78v-52.15c0-1.54,1.24-2.78,2.78-2.78h0c1.53,0,2.78,1.24,2.78,2.78v52.15c0,1.54-1.24,2.78-2.78,2.78Z"/>
              <path class="cls-5" d="M176,317.98h0c-1.54,0-2.78-1.24-2.78-2.78v-44.21c0-1.54,1.24-2.78,2.78-2.78h0c1.53,0,2.78,1.24,2.78,2.78v44.21c0,1.54-1.24,2.78-2.78,2.78Z"/>
            </g>
            <g>
              <path class="cls-19" d="M175.34,324.37v.42h-3.25v-.34l1.93-1.89c.52-.52,.62-.83,.62-1.15,0-.54-.38-.87-1.09-.87-.54,0-.96,.17-1.26,.52l-.34-.29c.36-.42,.93-.66,1.64-.66,.94,0,1.54,.48,1.54,1.25,0,.44-.14,.84-.76,1.45l-1.58,1.55h2.55Z"/>
              <path class="cls-19" d="M175.9,322.48c0-1.48,.77-2.36,1.85-2.36s1.85,.88,1.85,2.36-.78,2.36-1.85,2.36-1.85-.88-1.85-2.36Zm3.21,0c0-1.24-.56-1.92-1.36-1.92s-1.36,.68-1.36,1.92,.56,1.92,1.36,1.92,1.36-.68,1.36-1.92Z"/>
            </g>
          </g>
          <g>
            <g>
              <path class="cls-13" d="M187.11,317.74h0c-1.53,0-2.78-1.24-2.78-2.78v-52.15c0-1.54,1.24-2.78,2.78-2.78h0c1.54,0,2.78,1.24,2.78,2.78v52.15c0,1.54-1.24,2.78-2.78,2.78Z"/>
              <path class="cls-5" d="M187.11,317.98h0c-1.53,0-2.78-1.24-2.78-2.78v-25.68c0-1.54,1.24-2.78,2.78-2.78h0c1.54,0,2.78,1.24,2.78,2.78v25.68c0,1.54-1.24,2.78-2.78,2.78Z"/>
            </g>
            <g>
              <path class="cls-19" d="M186.39,323.47c0,.77-.56,1.37-1.68,1.37-.67,0-1.31-.23-1.67-.6l.23-.38c.3,.31,.83,.54,1.44,.54,.77,0,1.19-.36,1.19-.93s-.39-.92-1.25-.92h-.33v-.35l1.28-1.61h-2.37v-.42h2.98v.34l-1.31,1.65c.99,.05,1.49,.58,1.49,1.32Z"/>
              <path class="cls-19" d="M187.05,322.48c0-1.48,.77-2.36,1.85-2.36s1.85,.88,1.85,2.36-.78,2.36-1.85,2.36-1.85-.88-1.85-2.36Zm3.21,0c0-1.24-.56-1.92-1.36-1.92s-1.36,.68-1.36,1.92,.56,1.92,1.36,1.92,1.36-.68,1.36-1.92Z"/>
            </g>
          </g>
          <g>
            <g>
              <path class="cls-13" d="M198.22,317.74h0c-1.54,0-2.78-1.24-2.78-2.78v-52.15c0-1.54,1.24-2.78,2.78-2.78h0c1.53,0,2.78,1.24,2.78,2.78v52.15c0,1.54-1.24,2.78-2.78,2.78Z"/>
              <path class="cls-5" d="M198.22,317.98h0c-1.54,0-2.78-1.24-2.78-2.78v-44.21c0-1.54,1.24-2.78,2.78-2.78h0c1.53,0,2.78,1.24,2.78,2.78v44.21c0,1.54-1.24,2.78-2.78,2.78Z"/>
            </g>
            <g>
              <path class="cls-19" d="M198.25,323.58h-.93v1.22h-.48v-1.22h-2.62v-.34l2.46-3.07h.53l-2.37,2.99h2.01v-1.07h.46v1.07h.93v.42Z"/>
              <path class="cls-19" d="M198.68,322.48c0-1.48,.77-2.36,1.85-2.36s1.85,.88,1.85,2.36-.78,2.36-1.85,2.36-1.85-.88-1.85-2.36Zm3.21,0c0-1.24-.56-1.92-1.36-1.92s-1.36,.68-1.36,1.92,.56,1.92,1.36,1.92,1.36-.68,1.36-1.92Z"/>
            </g>
          </g>
          <g>
            <g>
              <path class="cls-13" d="M209.33,317.74h0c-1.53,0-2.78-1.24-2.78-2.78v-52.15c0-1.54,1.24-2.78,2.78-2.78h0c1.54,0,2.78,1.24,2.78,2.78v52.15c0,1.54-1.24,2.78-2.78,2.78Z"/>
              <path class="cls-5" d="M209.33,317.98h0c-1.53,0-2.78-1.24-2.78-2.78v-35.74c0-1.53,1.24-2.78,2.78-2.78h0c1.54,0,2.78,1.24,2.78,2.78v35.74c0,1.54-1.24,2.78-2.78,2.78Z"/>
            </g>
            <g>
              <path class="cls-19" d="M209.09,323.43c0,.79-.55,1.4-1.68,1.4-.67,0-1.3-.23-1.66-.6l.23-.38c.3,.31,.83,.54,1.42,.54,.79,0,1.2-.38,1.2-.95,0-.6-.37-.97-1.55-.97h-.99l.24-2.32h2.54v.42h-2.12l-.16,1.48h.6c1.4,0,1.93,.55,1.93,1.37Z"/>
              <path class="cls-19" d="M209.69,322.48c0-1.48,.77-2.36,1.85-2.36s1.85,.88,1.85,2.36-.78,2.36-1.85,2.36-1.85-.88-1.85-2.36Zm3.21,0c0-1.24-.56-1.92-1.36-1.92s-1.36,.68-1.36,1.92,.56,1.92,1.36,1.92,1.36-.68,1.36-1.92Z"/>
            </g>
          </g>
          <g>
            <g>
              <path class="cls-13" d="M220.45,317.74h0c-1.54,0-2.78-1.24-2.78-2.78v-52.15c0-1.54,1.24-2.78,2.78-2.78h0c1.54,0,2.78,1.24,2.78,2.78v52.15c0,1.54-1.24,2.78-2.78,2.78Z"/>
              <path class="cls-5" d="M220.45,317.74h0c-1.54,0-2.78-1.24-2.78-2.53v-25.68c0-1.78,1.24-3.02,2.78-3.02h0c1.54,0,2.78,1.24,2.78,2.78v25.68c0,1.54-1.24,2.78-2.78,2.78Z"/>
            </g>
            <g>
              <path class="cls-19" d="M220.08,323.41c0,.87-.68,1.42-1.58,1.42-1.23,0-1.9-.85-1.9-2.32,0-1.58,.86-2.4,2.12-2.4,.42,0,.81,.07,1.1,.25l-.19,.38c-.24-.16-.56-.22-.9-.22-1,0-1.64,.64-1.64,1.9,0,.11,0,.24,.02,.38,.23-.51,.77-.79,1.42-.79,.92,0,1.56,.54,1.56,1.39Zm-.47,.01c0-.61-.45-1-1.17-1s-1.19,.44-1.19,1.01c0,.51,.42,.99,1.23,.99,.67,0,1.13-.39,1.13-1.01Z"/>
              <path class="cls-19" d="M220.63,322.48c0-1.48,.77-2.36,1.85-2.36s1.85,.88,1.85,2.36-.78,2.36-1.85,2.36-1.85-.88-1.85-2.36Zm3.21,0c0-1.24-.56-1.92-1.36-1.92s-1.36,.68-1.36,1.92,.56,1.92,1.36,1.92,1.36-.68,1.36-1.92Z"/>
            </g>
          </g>
          <g>
            <g>
              <path class="cls-13" d="M231.56,317.74h0c-1.54,0-2.78-1.24-2.78-2.78v-52.15c0-1.54,1.24-2.78,2.78-2.78h0c1.53,0,2.78,1.24,2.78,2.78v52.15c0,1.54-1.24,2.78-2.78,2.78Z"/>
              <path class="cls-5" d="M231.56,317.98h0c-1.54,0-2.78-1.24-2.78-2.78v-46.85c0-1.54,1.24-2.78,2.78-2.78h0c1.53,0,2.78,1.24,2.78,2.78v46.85c0,1.54-1.24,2.78-2.78,2.78Z"/>
            </g>
            <g>
              <path class="cls-19" d="M230.96,320.16v.34l-1.94,4.3h-.52l1.91-4.21h-2.38v.87h-.47v-1.29h3.4Z"/>
              <path class="cls-19" d="M231.46,322.48c0-1.48,.77-2.36,1.85-2.36s1.85,.88,1.85,2.36-.78,2.36-1.85,2.36-1.85-.88-1.85-2.36Zm3.21,0c0-1.24-.56-1.92-1.36-1.92s-1.36,.68-1.36,1.92,.56,1.92,1.36,1.92,1.36-.68,1.36-1.92Z"/>
            </g>
          </g>
          <g>
            <g>
              <path class="cls-13" d="M242.67,317.74h0c-1.54,0-2.78-1.24-2.78-2.78v-52.15c0-1.54,1.24-2.78,2.78-2.78h0c1.53,0,2.78,1.24,2.78,2.78v52.15c0,1.54-1.24,2.78-2.78,2.78Z"/>
              <path class="cls-5" d="M242.67,317.98h0c-1.54,0-2.78-1.24-2.78-2.78v-20.38c0-1.53,1.24-2.78,2.78-2.78h0c1.53,0,2.78,1.24,2.78,2.78v20.38c0,1.54-1.24,2.78-2.78,2.78Z"/>
            </g>
            <g>
              <path class="cls-19" d="M242.11,323.51c0,.82-.7,1.33-1.8,1.33s-1.79-.51-1.79-1.33c0-.56,.32-.95,.89-1.14-.47-.19-.73-.54-.73-1.02,0-.75,.64-1.23,1.62-1.23s1.64,.47,1.64,1.23c0,.48-.27,.83-.74,1.02,.58,.19,.91,.59,.91,1.14Zm-.49,0c0-.57-.49-.93-1.31-.93s-1.3,.36-1.3,.93,.48,.93,1.3,.93,1.31-.36,1.31-.93Zm-1.31-1.3c.72,0,1.15-.32,1.15-.83s-.46-.84-1.15-.84-1.15,.32-1.15,.83,.42,.83,1.15,.83Z"/>
              <path class="cls-19" d="M242.77,322.48c0-1.48,.77-2.36,1.85-2.36s1.85,.88,1.85,2.36-.78,2.36-1.85,2.36-1.85-.88-1.85-2.36Zm3.21,0c0-1.24-.56-1.92-1.36-1.92s-1.36,.68-1.36,1.92,.56,1.92,1.36,1.92,1.36-.68,1.36-1.92Z"/>
            </g>
          </g>
          <g>
            <g>
              <path class="cls-13" d="M253.78,317.74h0c-1.54,0-2.78-1.24-2.78-2.78v-52.15c0-1.54,1.24-2.78,2.78-2.78h0c1.54,0,2.78,1.24,2.78,2.78v52.15c0,1.54-1.24,2.78-2.78,2.78Z"/>
              <path class="cls-5" d="M253.78,317.74h0c-1.54,0-2.78-1.24-2.78-2.53v-7.15c0-1.78,1.24-3.02,2.78-3.02h0c1.54,0,2.78,1.24,2.78,2.78v7.15c0,1.54-1.24,2.78-2.78,2.78Z"/>
            </g>
            <g>
              <path class="cls-19" d="M252.94,322.44c0,1.58-.86,2.4-2.12,2.4-.42,0-.81-.07-1.1-.25l.19-.38c.24,.16,.56,.22,.9,.22,1,0,1.64-.64,1.64-1.9,0-.11,0-.24-.02-.38-.23,.51-.77,.79-1.42,.79-.92,0-1.56-.54-1.56-1.39s.68-1.42,1.58-1.42c1.23,0,1.9,.85,1.9,2.32Zm-.66-.92c0-.51-.42-.99-1.23-.99-.67,0-1.13,.39-1.13,1.01s.45,1,1.17,1,1.19-.44,1.19-1.01Z"/>
              <path class="cls-19" d="M253.63,322.48c0-1.48,.77-2.36,1.85-2.36s1.85,.88,1.85,2.36-.78,2.36-1.85,2.36-1.85-.88-1.85-2.36Zm3.21,0c0-1.24-.56-1.92-1.36-1.92s-1.36,.68-1.36,1.92,.56,1.92,1.36,1.92,1.36-.68,1.36-1.92Z"/>
            </g>
          </g>
          <g>
            <g>
              <path class="cls-13" d="M264.89,317.74h0c-1.53,0-2.78-1.24-2.78-2.78v-52.15c0-1.54,1.24-2.78,2.78-2.78h0c1.54,0,2.78,1.24,2.78,2.78v52.15c0,1.54-1.24,2.78-2.78,2.78Z"/>
              <path class="cls-5" d="M264.89,317.74h0c-1.53,0-2.78-1.24-2.78-2.53v-25.68c0-1.78,1.24-3.02,2.78-3.02h0c1.54,0,2.78,1.24,2.78,2.78v25.68c0,1.54-1.24,2.78-2.78,2.78Z"/>
            </g>
            <g>
              <path class="cls-19" d="M260.91,320.16v4.64h-.48v-4.21h-1.09v-.42h1.57Z"/>
              <path class="cls-19" d="M262.01,322.48c0-1.48,.77-2.36,1.85-2.36s1.85,.88,1.85,2.36-.78,2.36-1.85,2.36-1.85-.88-1.85-2.36Zm3.21,0c0-1.24-.56-1.92-1.36-1.92s-1.36,.68-1.36,1.92,.56,1.92,1.36,1.92,1.36-.68,1.36-1.92Z"/>
              <path class="cls-19" d="M266.39,322.48c0-1.48,.77-2.36,1.85-2.36s1.85,.88,1.85,2.36-.78,2.36-1.85,2.36-1.85-.88-1.85-2.36Zm3.21,0c0-1.24-.56-1.92-1.36-1.92s-1.36,.68-1.36,1.92,.56,1.92,1.36,1.92,1.36-.68,1.36-1.92Z"/>
            </g>
          </g>
        </g>
        <path class="cls-13" d="M287.91,328.64c-.14,0-.26-17.16-.26-38.33s.12-38.33,.26-38.33,.26,17.16,.26,38.33-.12,38.33-.26,38.33Z"/>
        <path class="cls-19" d="M352.58,256.98c0,.14-10.58,.26-23.63,.26s-23.63-.12-23.63-.26,10.58-.26,23.63-.26,23.63,.12,23.63,.26Z"/>
        <g class="cls-8">
          <path class="cls-6" d="M301.42,323.73l10.57-15.07c1.23-1.75,3.67-2.14,5.38-.85l5.56,4.2c1.82,1.37,4.42,.84,5.56-1.13l16.04-27.78c1.34-2.32,4.6-2.55,6.25-.45l10.01,12.7c1.62,2.05,4.77,1.89,6.17-.31l7.32-11.5c1.53-2.4,5.05-2.32,6.47,.14l6.04,10.47c1.42,2.46,4.94,2.54,6.47,.14l20.66-32.38c1.47-2.3,4.82-2.34,6.34-.07l34.13,51.06c1.37,2.05,4.3,2.26,5.95,.44l20.74-22.83c1.46-1.6,3.96-1.66,5.49-.13l16.49,16.55c1.76,1.77,4.72,1.38,5.96-.78l29.51-51.11c1.94-3.36,7.07-1.98,7.07,1.89v66.8h-244.2Z"/>
        </g>
      </g>
    </g>
  </g>
  <g id="Magnifying_Glass" data-name="Magnifying Glass">
    <g>
      <path class="cls-12" d="M112.18,330.18c-23.57,0-43.89-17.83-46.45-41.78-2.74-25.63,15.88-48.71,41.52-51.45,12.42-1.32,24.61,2.26,34.32,10.1,9.72,7.84,15.8,19,17.13,31.41h0c2.74,25.63-15.88,48.71-41.52,51.45-1.68,.18-3.35,.27-5,.27Zm.11-86.5c-1.43,0-2.86,.08-4.3,.23-21.79,2.33-37.63,21.95-35.3,43.75,2.33,21.79,21.96,37.64,43.75,35.3,21.79-2.33,37.63-21.96,35.3-43.75-1.13-10.56-6.3-20.04-14.56-26.71-7.14-5.76-15.84-8.82-24.88-8.82Z"/>
      <path class="cls-12" d="M181.48,373.39c-.99,0-1.97-.42-2.67-1.23l-44.21-51.88c-1.25-1.47-1.08-3.68,.39-4.93,1.47-1.25,3.68-1.08,4.93,.39l44.21,51.88c1.25,1.47,1.08,3.68-.39,4.93-.66,.56-1.47,.84-2.27,.84Z"/>
    </g>
  </g>
  <g id="Plant">
    <g>
      <g>
        <path class="cls-5" d="M604.97,370.47c7.2,2.51,16.58,.27,22.74-4.23,6.16-4.5,10.59-10.94,14.51-17.47,1.68-2.79,3.31-5.69,3.84-8.9,.53-3.21-.25-6.82-2.74-8.91-3.87-3.26-9.79-1.6-14.19,.9-13.75,7.83-23.13,22.83-24.16,38.62"/>
        <path class="cls-5" d="M612.7,387.7c4.32,5.7,11.75,8.24,18.89,8.57,7.15,.33,14.21-1.64,20.89-4.21,2.42-.93,5.08-2.2,5.91-4.66,.63-1.86-.02-3.98-1.27-5.5-1.25-1.52-3.02-2.52-4.82-3.29-6.58-2.8-14.11-2.93-21.02-1.14-6.92,1.79-12.96,5.8-18.57,10.23"/>
        <path class="cls-5" d="M604.87,339.64c5.96,.12,10.47-5.1,13.16-10.41,3.73-7.36,5-15.94,3.55-24.06-.54-3.04-1.7-6.33-4.42-7.79-2.77-1.49-6.37-.51-8.69,1.61-2.32,2.12-3.59,5.14-4.52,8.15-3.2,10.35-2.51,22.24,.92,32.51"/>
        <path class="cls-5" d="M585.3,372.59c10.16-17.29,11.85-38.44,5.85-57.57-.97-3.1-2.81-6.65-6.06-6.86-3.59-.23-5.85,3.78-6.84,7.24-3.48,12.15-2.74,25.05-1.97,37.66,.47,7.77,3.14,14.41,9.02,19.52"/>
        <path class="cls-5" d="M574.74,379.7c-3.68-11.84-13.04-21.77-24.65-26.14-2.7-1.02-6.13-1.59-8.14,.47-1.97,2.02-1.37,5.41-.1,7.93,2.04,4.08,5.36,7.36,8.67,10.51,3.01,2.86,6.13,5.74,9.94,7.4,3.8,1.66,10.79,2.09,14.27-.18"/>
        <path class="cls-19" d="M637.71,335.29s-.06,.06-.18,.16c-.15,.11-.33,.25-.55,.42-.52,.39-1.23,.92-2.13,1.59-.47,.34-.98,.73-1.54,1.14-.55,.43-1.13,.93-1.77,1.44-1.26,1.05-2.74,2.18-4.24,3.6-.76,.69-1.56,1.42-2.39,2.18-.83,.76-1.63,1.62-2.49,2.47-1.75,1.68-3.44,3.64-5.26,5.67-3.52,4.15-7.14,8.94-10.47,14.28-3.28,5.37-5.95,10.75-8.09,15.76-1,2.54-2,4.93-2.72,7.24-.38,1.15-.79,2.25-1.1,3.33-.3,1.08-.6,2.12-.88,3.11-.6,1.97-.95,3.81-1.33,5.4-.18,.8-.36,1.54-.5,2.23-.12,.69-.23,1.32-.33,1.89-.2,1.11-.36,1.98-.47,2.62-.05,.28-.1,.5-.13,.68-.03,.15-.05,.23-.06,.23,0,0,0-.08,.01-.24,.02-.18,.05-.41,.09-.69,.09-.64,.22-1.52,.38-2.63,.09-.58,.18-1.21,.29-1.9,.12-.69,.3-1.44,.46-2.24,.35-1.6,.68-3.45,1.26-5.43,.27-1,.55-2.04,.85-3.13,.3-1.09,.71-2.19,1.08-3.35,.71-2.33,1.7-4.74,2.69-7.29,2.13-5.04,4.79-10.45,8.09-15.84,3.35-5.36,6.99-10.16,10.55-14.31,1.84-2.03,3.55-3.98,5.31-5.66,.87-.85,1.68-1.7,2.52-2.46,.84-.75,1.65-1.47,2.42-2.16,1.51-1.41,3.02-2.53,4.3-3.56,.65-.51,1.23-.99,1.8-1.41,.57-.4,1.1-.77,1.57-1.11,.92-.64,1.65-1.15,2.18-1.52,.23-.16,.42-.28,.57-.39,.13-.08,.2-.12,.2-.12Z"/>
        <path class="cls-19" d="M651.16,383.21s-.24-.02-.7-.12c-.45-.08-1.11-.26-1.98-.4-1.72-.34-4.23-.72-7.35-.9-6.21-.4-15.04,.34-23.88,4.02-8.84,3.68-15.59,9.42-19.69,14.11-2.07,2.34-3.57,4.39-4.54,5.85-.51,.71-.85,1.31-1.11,1.69-.25,.39-.39,.58-.41,.58-.01,0,.1-.22,.33-.63,.24-.4,.55-1,1.04-1.74,.93-1.49,2.39-3.58,4.45-5.97,4.06-4.77,10.83-10.62,19.76-14.33,8.92-3.71,17.84-4.4,24.09-3.91,3.14,.23,5.66,.66,7.37,1.05,.86,.17,1.52,.38,1.96,.49,.45,.12,.68,.19,.67,.21Z"/>
        <path class="cls-19" d="M613.65,304.28s0,.09-.04,.27c-.04,.2-.1,.46-.16,.78-.16,.71-.38,1.71-.67,2.98-.58,2.58-1.48,6.31-2.6,10.91-2.24,9.2-5.49,21.87-8.88,35.91-1.68,7.03-3.21,13.74-4.52,19.86-1.29,6.12-2.39,11.65-3.21,16.31-.44,2.33-.77,4.44-1.08,6.29-.32,1.85-.57,3.45-.76,4.76-.2,1.28-.36,2.29-.47,3.01-.05,.32-.1,.58-.13,.78-.03,.18-.05,.27-.06,.26,0,0,0-.09,.01-.27,.02-.2,.05-.46,.09-.79,.09-.73,.22-1.74,.38-3.03,.16-1.31,.38-2.92,.68-4.78,.29-1.86,.59-3.98,1.01-6.31,.78-4.67,1.84-10.21,3.11-16.35,1.29-6.13,2.8-12.85,4.49-19.88,3.39-14.05,6.69-26.7,9.01-35.88,1.15-4.56,2.09-8.27,2.75-10.87,.32-1.26,.57-2.25,.76-2.95,.09-.32,.15-.57,.21-.77,.05-.17,.08-.26,.09-.26Z"/>
        <path class="cls-19" d="M590.32,405.02s-.03-.07-.06-.21c-.04-.17-.08-.37-.14-.62-.12-.59-.29-1.39-.5-2.41-.43-2.09-1-5.13-1.65-8.89-1.3-7.52-2.85-17.96-3.8-29.58-.46-5.81-.72-11.36-.83-16.41-.08-5.05-.04-9.6,.12-13.41,.05-1.91,.17-3.63,.26-5.15,.08-1.51,.18-2.82,.28-3.88,.1-1.03,.17-1.85,.23-2.45,.03-.26,.05-.46,.07-.64,.02-.14,.03-.22,.04-.22,0,0,.01,.08,0,.22,0,.17-.01,.38-.02,.64-.03,.6-.08,1.42-.14,2.45-.07,1.06-.15,2.37-.2,3.88-.06,1.51-.16,3.24-.18,5.14-.11,3.81-.12,8.35-.02,13.39,.14,5.04,.41,10.58,.86,16.38,.95,11.6,2.44,22.03,3.65,29.56,.61,3.76,1.13,6.81,1.5,8.91,.17,1.02,.31,1.83,.41,2.42,.04,.25,.07,.46,.1,.63,.02,.14,.02,.22,.02,.22Z"/>
        <path class="cls-19" d="M591.08,407.21s-.11-.2-.26-.6c-.17-.44-.39-1.02-.67-1.74-.15-.38-.3-.8-.48-1.26-.2-.45-.42-.94-.65-1.46-.23-.53-.48-1.09-.75-1.68-.26-.59-.6-1.19-.92-1.84-.33-.64-.68-1.32-1.04-2.01-.4-.68-.81-1.39-1.24-2.12-.82-1.49-1.87-2.97-2.89-4.59-2.18-3.14-4.74-6.47-7.65-9.78-2.94-3.28-5.95-6.22-8.78-8.79-1.46-1.23-2.8-2.46-4.15-3.49-.66-.53-1.3-1.04-1.92-1.53-.63-.47-1.24-.92-1.83-1.35-1.15-.87-2.24-1.6-3.19-2.24-.94-.65-1.77-1.2-2.46-1.62-.65-.41-1.17-.74-1.57-1-.36-.23-.54-.36-.53-.38,0-.01,.21,.09,.58,.29,.41,.23,.95,.54,1.62,.92,.71,.39,1.55,.92,2.51,1.55,.97,.62,2.07,1.33,3.24,2.19,.59,.42,1.21,.87,1.85,1.33,.63,.49,1.27,.99,1.95,1.52,1.37,1.02,2.72,2.25,4.19,3.47,2.86,2.56,5.89,5.5,8.84,8.8,2.93,3.32,5.49,6.68,7.66,9.85,1.01,1.63,2.06,3.13,2.87,4.63,.42,.74,.83,1.46,1.22,2.15,.35,.71,.69,1.39,1.01,2.04,.31,.65,.64,1.26,.9,1.86,.25,.6,.49,1.17,.71,1.7,.22,.53,.43,1.02,.62,1.48,.16,.46,.31,.89,.44,1.28,.24,.73,.44,1.32,.59,1.77,.13,.41,.19,.62,.17,.63Z"/>
        <path class="cls-19" d="M633.94,355.34c0,.08-1.23,.08-3.21,.19-1.98,.11-4.7,.37-7.67,.93-2.97,.57-5.6,1.32-7.47,1.95-1.88,.62-3.02,1.07-3.05,1-.01-.03,.26-.18,.76-.41,.5-.24,1.25-.55,2.18-.91,1.86-.71,4.5-1.53,7.5-2.1,2.99-.57,5.75-.77,7.74-.8,1-.01,1.8,0,2.36,.05,.56,.04,.86,.07,.86,.11Z"/>
        <path class="cls-19" d="M641.6,392.76c-.14,.07-1.29-3.24-4.18-6.31-2.85-3.11-6.07-4.5-5.98-4.64,.02-.05,.84,.23,2.06,.91,1.22,.68,2.81,1.83,4.27,3.4,1.46,1.57,2.48,3.24,3.07,4.51,.6,1.27,.81,2.11,.76,2.13Z"/>
        <path class="cls-19" d="M615.47,318.31c.1,.1-1.77,1.96-3.81,4.47-2.05,2.5-3.49,4.71-3.61,4.63-.11-.06,1.16-2.4,3.24-4.94,2.07-2.54,4.1-4.26,4.19-4.17Z"/>
        <path class="cls-19" d="M609.34,307.71c.13-.02,.54,1.77,.93,4.01,.38,2.24,.58,4.07,.45,4.09-.13,.02-.54-1.77-.93-4.01-.38-2.24-.58-4.07-.45-4.09Z"/>
        <path class="cls-19" d="M590.34,340.97c.12,.06-1.21,2.86-2.97,6.26-1.76,3.4-3.28,6.1-3.4,6.04-.12-.06,1.21-2.86,2.97-6.26,1.76-3.39,3.28-6.1,3.4-6.04Z"/>
        <path class="cls-19" d="M579.03,329.68c.12-.06,1.25,1.97,2.52,4.53,1.27,2.56,2.21,4.68,2.09,4.74-.12,.06-1.25-1.97-2.52-4.53-1.27-2.56-2.21-4.68-2.09-4.74Z"/>
        <path class="cls-19" d="M562.41,368.29c-.03,.14-2.05-.25-4.56-.43-2.51-.18-4.57-.08-4.58-.22-.02-.12,2.05-.44,4.61-.26,2.56,.18,4.56,.79,4.53,.9Z"/>
      </g>
      <g>
        <path class="cls-19" d="M573.76,402.43l5.65,29.74c.37,1.97,2.09,3.39,4.09,3.39h16.7c2.04,0,3.78-1.47,4.11-3.49l4.92-29.64h-35.48Z"/>
        <polygon class="cls-12" points="575.6 412.09 607.54 412.09 609.24 402.43 573.76 402.43 575.6 412.09"/>
        <polygon class="cls-7" points="575.6 412.09 576.27 415.62 607.05 415.62 607.54 412.09 575.6 412.09"/>
      </g>
    </g>
  </g>
  <g id="Character">
    <g>
      <g>
        <g>
          <path class="cls-5" d="M470.54,407.19l.51,18.18s18.65,5.59,19.07,8.94l-35.21,2.25-1.95-28.29,17.59-1.08Z"/>
          <path class="cls-13" d="M460.06,424.53c-.67,.23-1.09,1.03-.89,1.7,.2,.68,1.01,1.11,1.68,.9,.67-.22,1.21-1.16,.93-1.81-.28-.65-1.25-1.11-1.85-.74"/>
          <g class="cls-10">
            <path class="cls-6" d="M454.9,436.55l-.09-2.86,33.79-1.09s1.61,.58,1.5,1.7l-35.21,2.25Z"/>
          </g>
          <path class="cls-19" d="M471.61,425.15c0,.17-.85,.31-1.66,.91-.83,.59-1.22,1.36-1.38,1.3-.16-.02,.03-1.07,1.02-1.79,.99-.73,2.04-.59,2.01-.43Z"/>
          <path class="cls-19" d="M475.4,426.44c.05,.16-.68,.5-1.21,1.27-.56,.75-.66,1.54-.83,1.55-.16,.04-.34-.96,.34-1.9,.68-.94,1.68-1.08,1.7-.92Z"/>
          <path class="cls-19" d="M477.78,430.73c-.15,.05-.45-.8-.07-1.77,.37-.97,1.16-1.4,1.24-1.26,.11,.14-.38,.67-.68,1.47-.32,.79-.32,1.52-.49,1.55Z"/>
          <path class="cls-19" d="M471.03,421.02c-.06,.16-.87-.03-1.83,.1-.97,.11-1.71,.48-1.8,.34-.11-.12,.59-.8,1.73-.94,1.14-.14,1.98,.35,1.91,.49Z"/>
        </g>
        <path class="cls-19" d="M470.86,417.35c0,.07-.67,.22-1.76,.1-.55-.06-1.19-.2-1.88-.45-.34-.13-.7-.28-1.05-.47-.17-.09-.37-.19-.56-.38-.2-.17-.34-.62-.14-.91,.16-.28,.47-.42,.73-.44,.26-.02,.47,.01,.67,.05,.4,.07,.77,.18,1.12,.31,.69,.26,1.26,.62,1.69,.96,.87,.7,1.18,1.33,1.13,1.37-.07,.06-.51-.45-1.38-1.02-.43-.28-.98-.57-1.63-.79-.32-.11-.67-.19-1.03-.25-.38-.07-.7-.06-.78,.12-.03,.07-.03,.09,.05,.19,.09,.1,.24,.18,.41,.28,.32,.18,.65,.34,.97,.47,.63,.27,1.23,.44,1.75,.54,1.03,.22,1.69,.22,1.7,.31Z"/>
        <path class="cls-19" d="M470.65,417.61c-.06,.03-.44-.56-.57-1.67-.06-.55-.05-1.22,.12-1.95,.09-.36,.21-.73,.38-1.1,.18-.36,.41-.84,1.07-.96,.35-.04,.65,.22,.77,.44,.13,.23,.17,.43,.22,.63,.09,.41,.11,.81,.08,1.19-.06,.76-.33,1.4-.64,1.87-.63,.96-1.33,1.21-1.35,1.15-.06-.08,.52-.45,.99-1.36,.23-.45,.43-1.03,.45-1.69,.01-.33-.01-.67-.1-1.02-.08-.37-.24-.66-.38-.62-.18,0-.45,.31-.58,.62-.16,.33-.28,.66-.38,.98-.18,.65-.24,1.27-.23,1.78,.02,1.04,.24,1.67,.15,1.7Z"/>
      </g>
      <g>
        <path class="cls-5" d="M396.02,406.39l-2.12,23.35-7,17.99c-.5,1.3,.19,2.75,1.52,3.16h0c.74,.23,1.55,.1,2.17-.38,3.94-3,18.4-14.13,18.46-15.85,.07-1.99,3.87-24.49,3.87-24.49l-16.89-3.8Z"/>
        <g class="cls-10">
          <path class="cls-6" d="M388.42,450.9l20.8-17.8-.11,.99c-.1,.85-.49,1.65-1.12,2.23-1.68,1.57-6.4,5.8-17.34,14.21-.64,.49-1.48,.63-2.24,.37h0Z"/>
        </g>
        <g class="cls-10">
          <path class="cls-6" d="M405.3,425.04c-.63,.34-.92,1.2-.61,1.84s1.18,.95,1.82,.62c.64-.33,1.02-1.35,.64-1.95-.38-.6-1.43-.9-1.96-.44"/>
        </g>
        <path class="cls-19" d="M394.91,441.33c-.14,.05-.53-1.23-1.84-2.05-1.29-.85-2.61-.67-2.62-.82-.01-.06,.3-.21,.86-.22,.55-.02,1.33,.15,2.05,.61,.72,.46,1.19,1.1,1.4,1.61,.22,.51,.21,.86,.15,.87Z"/>
        <path class="cls-19" d="M392.89,444.26c-.12,.09-.78-.75-1.95-1.24-1.16-.51-2.22-.4-2.24-.55-.05-.13,1.12-.49,2.44,.08,1.33,.56,1.88,1.66,1.75,1.71Z"/>
        <path class="cls-19" d="M398.45,437.68c-.12,.1-1.13-1.2-2.88-2.11-1.73-.94-3.38-1.04-3.36-1.2-.02-.13,1.74-.26,3.61,.74,1.87,.98,2.76,2.51,2.64,2.57Z"/>
        <path class="cls-19" d="M399.69,430.63c-.08,.13-1.3-.55-2.97-.8-1.66-.27-3.04,0-3.08-.15-.05-.12,1.37-.65,3.16-.36,1.79,.27,2.98,1.21,2.89,1.31Z"/>
        <path class="cls-19" d="M400.49,423.79c-.09,.13-1.29-.8-3.07-.92-1.78-.16-3.11,.56-3.18,.42-.03-.05,.26-.32,.83-.57,.57-.25,1.43-.45,2.39-.37,.96,.08,1.78,.41,2.3,.74,.53,.34,.77,.64,.73,.69Z"/>
        <path class="cls-19" d="M397.6,421.58s-.05-.32,.07-.88c.12-.56,.37-1.37,.96-2.23,.3-.4,.63-.93,1.31-1.16,.34-.12,.82,0,1.06,.34,.24,.33,.28,.72,.25,1.09-.19,1.48-1.63,2.76-3.31,2.79-1.69,0-3.1-1.13-3.61-2.49-.11-.35-.16-.76,.06-1.14,.22-.38,.71-.48,1.04-.39,.68,.18,1.07,.63,1.44,.97,.73,.74,1.15,1.47,1.38,1.99,.24,.52,.29,.84,.27,.85-.09,.05-.46-1.21-1.9-2.58-.37-.32-.79-.71-1.28-.82-.24-.05-.46,.02-.57,.21-.11,.18-.09,.48,0,.75,.44,1.11,1.73,2.14,3.16,2.12,1.42,0,2.68-1.14,2.85-2.32,.04-.29,0-.58-.14-.77-.13-.18-.36-.26-.58-.19-.47,.13-.83,.59-1.13,.96-1.18,1.6-1.23,2.94-1.33,2.9Z"/>
      </g>
      <polygon class="cls-19" points="390.71 239.52 389.32 421.65 414.93 423.29 420.32 271.15 451.02 422.43 474.3 419.98 449.54 239.49 390.71 239.52"/>
      <g>
        <g>
          <g>
            <path class="cls-15" d="M421.85,91.63c-8.65-.67-16.18,5.87-16.7,14.53-.43,7.21-.83,15.01-.78,18.94,.1,8.43,8.54,9.74,8.54,9.74,0,0-.21,2.5-.44,5.6-.47,6.24,4.31,11.64,10.56,11.93h0c6.13,.28,11.33-4.46,11.6-10.59l1.53-33.97c.38-8.37-5.95-15.53-14.31-16.18h0Z"/>
            <path class="cls-9" d="M412.89,134.72s5.33,.43,10.99-3.12c0,0-2.6,6.07-11.01,5.31l.02-2.18Z"/>
          </g>
          <g>
            <path class="cls-15" d="M435.38,110.7c.14-.06,5.79-1.71,5.61,4.05-.18,5.76-5.93,4.39-5.94,4.22,0-.17,.33-8.28,.33-8.28Z"/>
            <path class="cls-9" d="M436.88,116.85s.1,.07,.27,.16c.16,.08,.45,.14,.75,.04,.62-.2,1.16-1.15,1.22-2.19,.03-.52-.06-1.03-.24-1.45-.16-.43-.43-.73-.73-.79-.3-.08-.53,.1-.6,.26-.08,.16-.05,.28-.08,.28-.02,.01-.12-.1-.07-.34,.03-.11,.1-.25,.24-.35,.14-.11,.35-.16,.56-.13,.44,.05,.83,.47,1.02,.93,.21,.46,.33,1.03,.3,1.62-.07,1.16-.7,2.23-1.54,2.44-.41,.09-.74-.04-.91-.18-.17-.15-.2-.28-.18-.29Z"/>
          </g>
          <g>
            <g>
              <g>
                <path class="cls-19" d="M407.29,111.53c-.02,.64,.5,1.18,1.16,1.21,.66,.04,1.22-.45,1.24-1.09,.02-.64-.5-1.18-1.16-1.22-.66-.04-1.22,.45-1.24,1.09Z"/>
                <path class="cls-19" d="M407.32,109.17c.15,.16,1.06-.52,2.36-.51,1.29-.02,2.24,.65,2.39,.49,.07-.07-.08-.35-.5-.66-.41-.3-1.1-.59-1.91-.59-.81,0-1.49,.3-1.88,.61-.4,.31-.53,.59-.46,.66Z"/>
              </g>
              <g>
                <path class="cls-19" d="M420.02,111.53c-.02,.64,.5,1.18,1.16,1.21,.66,.04,1.22-.45,1.24-1.09,.02-.64-.5-1.18-1.16-1.22-.66-.04-1.22,.45-1.24,1.09Z"/>
                <path class="cls-19" d="M420.06,109.41c.15,.16,1.06-.52,2.36-.51,1.29-.02,2.25,.65,2.39,.49,.07-.07-.08-.35-.5-.65-.41-.3-1.1-.59-1.91-.59-.81,0-1.49,.3-1.88,.61-.4,.31-.53,.59-.46,.66Z"/>
              </g>
              <path class="cls-19" d="M415.35,119.02c0-.07-.8-.21-2.1-.38-.33-.03-.64-.1-.7-.33-.08-.24,.06-.6,.22-.98,.31-.8,.64-1.64,.98-2.52,1.36-3.59,2.34-6.54,2.2-6.59-.15-.05-1.36,2.81-2.72,6.4-.33,.88-.64,1.73-.94,2.53-.13,.38-.34,.8-.17,1.3,.09,.25,.33,.43,.54,.48,.21,.06,.4,.07,.56,.08,1.31,.07,2.13,.08,2.13,0Z"/>
              <path class="cls-19" d="M419.17,119.92c-.21-.01-.21,1.39-1.42,2.39-1.2,1-2.7,.84-2.71,1.04-.02,.09,.33,.27,.97,.29,.62,.02,1.53-.18,2.26-.79,.73-.61,1.05-1.43,1.1-2.01,.05-.59-.1-.94-.2-.93Z"/>
            </g>
            <path class="cls-19" d="M419.72,104.33c.13,.35,1.42,.19,2.94,.37,1.52,.15,2.75,.6,2.95,.28,.09-.15-.12-.48-.62-.82-.49-.34-1.28-.66-2.19-.77-.91-.1-1.75,.05-2.3,.27-.56,.22-.84,.5-.78,.67Z"/>
            <path class="cls-19" d="M407.8,105.42c.23,.29,1.12-.01,2.19-.03,1.07-.05,1.98,.2,2.19-.11,.09-.15-.05-.44-.45-.72-.39-.28-1.05-.5-1.78-.48-.74,.02-1.38,.29-1.75,.59-.38,.3-.5,.61-.4,.75Z"/>
          </g>
        </g>
        <path class="cls-19" d="M436.04,110.44c.07,.88,.04,1.9-.14,2.77-.19,.87-.68,1.71-1.47,2.1-1.45,.72-3.27-.39-3.91-1.87-.65-1.48-.47-3.18-.32-4.79,.2-2.2,.32-4.43-.1-6.6s-1.44-4.28-3.17-5.66c-1.73-1.37-4.23-1.87-6.21-.9-1.22,.6-2.14,1.68-3.28,2.42-1.03,.67-2.27,1.07-3.48,.88-1.21-.19-2.35-1.04-2.67-2.22-.35-1.29,.32-2.69,1.36-3.54,1.04-.84,2.37-1.22,3.68-1.47,3.64-.69,7.49-.52,10.94,.85,3.44,1.37,6.49,3.97,7.94,7.39,1.68,3.95,1.46,6.35,.97,10.64"/>
      </g>
      <g>
        <path class="cls-15" d="M318.6,154.59l12.3,2.48,16.91,10.77-5.77,10.98s-5.95-1.66-7.68-3.19-3.66-1.71-3.66-1.71c0,0,.12,2.72-1.94,2.25-2.06-.47-5.49-1.05-4.91-3.95,0,0-1.53-.42-1.45-2.44,0,0-1.7-.13-1.24-2.94s2.49-6.45,8.1-5.42c.29,.06,.68-.5,.17-.69l-8.67-2.04s-5.43-2.15-2.16-4.08Z"/>
        <path class="cls-9" d="M324.67,166.7c.02-.07,.81,.13,2.06,.5,.63,.21,1.36,.36,2.21,.75,.41,.21,.84,.58,1,1.14,.16,.58-.15,1.2-.59,1.54-.95,.72-2.09,.5-2.9,.38-.86-.13-1.63-.29-2.27-.47-1.27-.36-2-.74-1.97-.8,.03-.08,.79,.18,2.06,.44,.63,.13,1.39,.25,2.24,.35,.43,.04,.88,.12,1.3,.09,.43-.03,.88-.14,1.21-.4,.33-.26,.51-.67,.42-1.01-.09-.36-.39-.66-.73-.84-.71-.36-1.5-.58-2.1-.82-1.22-.46-1.96-.78-1.94-.85Z"/>
        <path class="cls-9" d="M327.67,165.11c-.02,.15-.75,.17-1.47,.63-.73,.45-1.07,1.1-1.21,1.05-.14-.02,.03-.93,.93-1.49,.89-.57,1.79-.33,1.75-.19Z"/>
        <path class="cls-9" d="M328.97,170.5s.13,.01,.28,.17c.19,.16,.22,.53,.27,.84,.06,.38,0,.89-.35,1.31-.36,.46-1.07,.56-1.6,.47-1.06-.16-2.01-.32-2.69-.54-.68-.22-1.05-.46-1.03-.52,.03-.07,.44,.05,1.12,.17,.67,.13,1.63,.22,2.67,.38,.5,.07,.92,.01,1.17-.27,.26-.27,.35-.65,.34-.96,0-.38,.03-.6-.06-.75-.08-.16-.15-.26-.12-.28Z"/>
        <path class="cls-9" d="M328.88,172.76c-.01-.06,.22-.17,.6-.06,.37,.1,.79,.43,1.1,.88,.37,.55,.24,1.13,.13,1.45-.12,.34-.27,.5-.33,.48-.07-.03-.05-.24-.03-.56,.02-.31,.03-.75-.2-1.07-.28-.39-.57-.69-.82-.84-.25-.16-.45-.2-.45-.27Z"/>
        <g>
          <path class="cls-15" d="M338.33,166.4l-5.94-.25-6.23,1.22s-.51,1.13,2.37,1.9c2.89,.77,5.55,.26,5.55,.26,0,0,2.57,3.75,5.91,4.61"/>
          <path class="cls-9" d="M340,174.15s-.2-.01-.55-.1c-.35-.1-.85-.29-1.45-.62-1.19-.65-2.71-1.9-4.1-3.77l.23,.1c-2.01,.31-4.44,.31-6.83-.64-.35-.16-.69-.34-.98-.62-.28-.28-.57-.69-.39-1.24l.04-.12,.15-.03c2.29-.43,4.41-.83,6.24-1.17h.03s.02,0,.02,0c1.8,.1,3.29,.19,4.32,.27,1.03,.08,1.61,.14,1.61,.19,0,.04-.59,.06-1.62,.05-1.03,0-2.52-.04-4.33-.09h.05c-1.82,.37-3.94,.79-6.22,1.26l.19-.15c-.05,.15,.06,.45,.28,.65,.22,.21,.52,.38,.84,.52,2.22,.89,4.63,.93,6.53,.67l.15-.02,.08,.12c1.3,1.82,2.75,3.1,3.86,3.79,1.11,.72,1.88,.88,1.86,.95Z"/>
        </g>
        <path class="cls-9" d="M331.09,162.93c-.08,.12-.65-.14-1.08-.75-.43-.61-.49-1.23-.35-1.27,.14-.04,.4,.44,.78,.97,.37,.53,.74,.93,.65,1.05Z"/>
      </g>
      <g>
        <path class="cls-11" d="M396.23,240.92c10.21,4.41,22.15,5.72,35.63,4.29l9.87-100.56-7-5.38-16.13,11.99-5.53-11.55-12.95,18.61-3.9,82.6Z"/>
        <path class="cls-19" d="M413.18,245.77s-.03-.08-.06-.24c-.03-.19-.07-.42-.11-.71-.09-.67-.22-1.58-.38-2.74-.1-1.2-.18-2.66-.28-4.37-.09-1.7-.08-3.65-.13-5.79-.06-8.59,.51-20.44,1.47-33.49,.96-13.06,2.14-24.86,3.09-33.39,.47-4.26,.91-7.71,1.23-10.09,.16-1.19,.31-2.11,.41-2.73,.05-.29,.09-.52,.12-.71,.03-.16,.05-.24,.06-.24,0,0,0,.08,0,.25-.02,.19-.04,.43-.07,.72-.08,.67-.18,1.59-.31,2.74-.26,2.43-.62,5.87-1.07,10.1-.86,8.53-1.98,20.33-2.94,33.39-.96,13.05-1.59,24.88-1.62,33.46,.02,2.14,0,4.08,.05,5.78,.08,1.69,.14,3.15,.2,4.36,.12,1.16,.21,2.07,.28,2.74,.02,.29,.04,.52,.06,.72,.01,.16,.01,.25,0,.25Z"/>
        <path class="cls-5" d="M426.76,260.58s-7.52-78.61-2.85-87.39c3.61-6.8,9.2-21,11.53-27.06,.7-1.81,.65-3.83-.14-5.6l-.56-1.24,7,5.38,14.37,7.72-8.67,66.6,9.82,33.79-30.5,7.82Z"/>
        <g class="cls-17">
          <path d="M424.83,237.82c6.11-1.28,3.47,2.27,9.65,1.37,3.34-.49,3.51-2.44,6.26-4.39,2.75-1.96,6.91-3.59,10.29-3.52l-1.37-4.71-25.56,.95,.74,10.3Z"/>
        </g>
        <path class="cls-5" d="M389.61,156.18l2.49,62.8-5.04,35.15,12.59,4.65,5.51-97.12c.06-3.61,.87-7.17,2.38-10.45l4.93-10.76-16.7,5.69-6.15,10.05Z"/>
        <path class="cls-5" d="M456.12,152.38s7.89,6.82,9.66,15.99c1.29,6.69,5.1,30.15,6.16,42.2,.66,7.49-4.6,14.25-12.03,15.34-.11,.02-.23,.03-.34,.05-11.43,1.56-30.63-.6-30.63-.6l3.35-14.6s16.98-2.45,20.03-4.5l-4.05-27.09s3.32-26.01,7.86-26.79Z"/>
        <path class="cls-5" d="M348.92,165.74l27.8,17.61s10.01-29.42,16.45-36.33l7.74-2.64-7.06,56.44c-.53,3.19-2.39,6.01-5.1,7.76h0c-4.17,2.68-9.59,2.39-13.44-.73l-34.01-27.58,7.63-14.53Z"/>
        <path class="cls-19" d="M457.38,215.42c-.09,0-.04-.64-.17-1.64-.12-.99-.48-2.35-1.23-3.67-.76-1.32-1.74-2.32-2.54-2.93-.79-.62-1.36-.9-1.32-.98,.02-.05,.65,.11,1.54,.68,.88,.56,1.97,1.57,2.78,2.97,.8,1.4,1.12,2.86,1.15,3.9,.04,1.05-.14,1.68-.2,1.67Z"/>
        <path class="cls-19" d="M454.4,217.35c-.17-.03,.59-2.68-.07-5.9-.62-3.23-2.33-5.4-2.18-5.48,.05-.04,.54,.44,1.13,1.38,.59,.93,1.23,2.34,1.57,4.01,.33,1.66,.27,3.22,.08,4.3-.19,1.09-.46,1.72-.52,1.7Z"/>
        <path class="cls-19" d="M454.18,155.13c.07,.09-1.4,.93-3.03,3.02-1.64,2.06-3.23,5.47-3.71,9.48-.47,4.02,0,7.7,.37,10.33,.19,1.23,.34,2.28,.47,3.12,.11,.74,.16,1.15,.12,1.16-.03,0-.15-.39-.32-1.12-.17-.73-.4-1.79-.64-3.1-.46-2.62-1-6.35-.52-10.45,.49-4.11,2.18-7.6,3.94-9.65,.87-1.04,1.7-1.76,2.32-2.19,.61-.43,.99-.62,1-.6Z"/>
        <g class="cls-17">
          <path d="M452.52,206.03c1.31,1.54,1.95,3.58,2.03,5.61,.08,2.02-.35,4.04-.97,5.96-.11,.36-.23,.77-.03,1.09,.26,.4,.91,.36,1.26,.04,.36-.32,.5-.81,.63-1.27-.24,.27,.11,.73,.47,.71,.36-.02,.63-.33,.83-.63,1.12-1.74,1.02-4.04,.24-5.95s-2.18-3.49-3.6-4.99"/>
        </g>
        <path class="cls-19" d="M382.38,194.35c-.11,.08-1.83-2.16-3.4-5.25-1.58-3.09-2.39-5.79-2.26-5.83,.14-.05,1.16,2.55,2.72,5.6,1.55,3.06,3.07,5.4,2.94,5.49Z"/>
        <path class="cls-19" d="M378.49,196.47c-.07,.02-.34-.69-.7-1.88-.35-1.18-.77-2.84-1.11-4.7-.34-1.86-.54-3.55-.64-4.79-.09-1.23-.09-2-.02-2,.15-.01,.48,3.01,1.17,6.7,.67,3.69,1.44,6.63,1.29,6.67Z"/>
        <path class="cls-19" d="M392.1,164.08c.14,0,.26,12.29,.26,27.45s-.12,27.45-.26,27.45-.26-12.29-.26-27.45,.12-27.45,.26-27.45Z"/>
        <path class="cls-19" d="M409.03,141.61s-.1,.18-.33,.49c-.26,.35-.59,.8-1,1.36-.85,1.19-2.06,2.94-3.36,5.22-1.28,2.28-2.78,5.09-3.56,8.48-.31,1.68-.51,3.55-.79,5.44-.83,2,1.14,3.3,2.74,4.39l.4,.27-.45,.19c-.53,.23-1.09,.63-1.63,1.04-.72,.56-1.41,1.15-2.03,1.72l.08-.21c.31,3.97,1,7.73,1.45,11.13,.48,3.38,.9,6.42,1.27,8.99,.33,2.5,.61,4.54,.81,6.02,.08,.67,.14,1.21,.19,1.63,.04,.37,.05,.57,.03,.57-.02,0-.06-.19-.13-.56-.07-.42-.17-.96-.29-1.62-.24-1.47-.56-3.5-.96-5.99-.39-2.56-.86-5.6-1.38-8.98-.48-3.4-1.18-7.12-1.5-11.16v-.13s.08-.08,.08-.08c.64-.58,1.33-1.18,2.07-1.75,.56-.42,1.11-.84,1.76-1.11l-.05,.46c-.87-.56-1.71-1.17-2.4-1.95-.33-.4-.65-.85-.72-1.43-.03-.13,0-.3,0-.43l.05-.36,.1-.71c.29-1.9,.49-3.71,.83-5.48,.4-1.74,1.02-3.31,1.68-4.73,.66-1.42,1.36-2.7,2.04-3.83,1.35-2.28,2.61-4,3.51-5.16,.45-.58,.82-1.02,1.07-1.31,.26-.29,.4-.43,.41-.42Z"/>
        <path class="cls-19" d="M439.84,143.45s.06,.14,.14,.42c.08,.28,.16,.7,.25,1.24,.16,1.09,.22,2.69-.01,4.64-.24,1.95-.78,4.23-1.5,6.71-.68,2.49-1.63,5.2-2.85,7.92-1.09,2.46-2.25,4.75-3.32,6.85l-.05,.11-.11,.02c-.83,.17-1.64,.33-2.41,.49l.13-.38c.54,.64,1.06,1.26,1.56,1.85l.1,.12-.08,.13c-1.42,2.28-2.61,4.19-3.49,5.61-.4,.61-.73,1.12-1,1.54-.23,.35-.37,.53-.39,.52-.02-.01,.08-.21,.28-.58,.24-.43,.54-.96,.9-1.6,.84-1.44,1.98-3.38,3.34-5.7l.02,.25c-.5-.58-1.03-1.19-1.58-1.82l-.26-.29,.38-.08c.77-.16,1.58-.34,2.41-.51l-.17,.13c1.04-2.11,2.19-4.4,3.28-6.84,1.22-2.71,2.16-5.36,2.87-7.84,.75-2.46,1.32-4.71,1.6-6.62,.28-1.92,.28-3.49,.18-4.57-.09-1.08-.23-1.67-.18-1.68Z"/>
        <g class="cls-17">
          <path d="M381.19,193.9c-1.24-3.54-2.95-7.12-4.47-10.55l-1.26-.8c-1.03,3.15-.63,6.6,.47,9.72,.1,.28,.24,.59,.52,.69,.37,.13,.77-.22,.84-.6,.08-.38-.07-.78-.21-1.14,.82,1.46,1.76,2.85,2.8,4.15,.16,.2,.35,.41,.6,.47,.41,.09,.81-.29,.89-.7,.08-.41-.06-.84-.2-1.23Z"/>
        </g>
        <g class="cls-17">
          <path d="M402.19,196.89c-2.4-6.79-4.81-13.63-5.76-20.77-.21-1.57-.34-3.2,.06-4.73,.41-1.54,1.45-2.98,2.96-3.48-.85-.92-.87-2.49-.04-3.43,.98,1.04,1.95,2.07,2.93,3.11-1.52-.02-2.79,1.29-3.23,2.74-.44,1.45-.24,3.01-.04,4.51,1,7.43,1.99,14.86,2.99,22.29"/>
        </g>
        <g class="cls-17">
          <path d="M434.11,173.08c1.45-5.08,2.91-10.17,4.36-15.25-1.22,2.92-2.44,5.83-3.66,8.75-.51,1.22-1.04,2.47-1.92,3.46-.88,.99-2.19,1.7-3.5,1.5,.76,.52,1.52,1.03,2.28,1.55-1.63,2.63-3.23,5.51-4.87,8.14l3.51,.3c1.33-2.12,2.52-4,3.85-6.11-.39-.7-.78-1.4-1.17-2.11,.38-.07,.76-.15,1.14-.22Z"/>
        </g>
        <polygon class="cls-11" points="412.46 140.44 412.65 138 417.17 144.38 418.61 151.27 422.3 144.38 435.05 136.97 435.05 143.45 432.61 149.75 427.86 153.42 422.43 155.8 415.96 154.59 412.05 152.38 411.18 147.81 412.46 140.44"/>
        <path class="cls-19" d="M416.85,144.29c.07,.03-.27,.89-.66,2.32-.38,1.43-.86,3.48-.75,5.76l.05,.99-.52-.83c-.1-.16-.21-.33-.32-.5-1.28-2.18-1.87-4.35-2.52-5.81-.61-1.48-1.14-2.33-1.07-2.37,.05-.04,.7,.75,1.41,2.22,.74,1.45,1.4,3.61,2.63,5.69,.1,.17,.21,.33,.3,.48l-.48,.16c-.1-2.39,.45-4.46,.93-5.89,.49-1.43,.95-2.24,1-2.22Z"/>
        <path class="cls-19" d="M435.05,141.19s.03,.09,.03,.26c.02,.17-.02,.43-.08,.75-.14,.64-.58,1.53-1.35,2.41-.77,.89-1.85,1.78-3.12,2.64-1.3,.81-2.6,1.81-3.97,2.92-1.23,.97-2.41,1.92-3.6,2.65l-.47,.29,.1-.54c.21-1.14,.15-2.28,.11-3.27-.05-1-.14-1.87-.21-2.6-.15-1.45-.25-2.31-.19-2.32,.05,0,.26,.83,.49,2.28,.11,.73,.24,1.61,.32,2.61,.07,1.01,.16,2.14-.04,3.39l-.37-.25c1.14-.72,2.3-1.67,3.53-2.64,1.36-1.1,2.73-2.13,4.03-2.91,1.26-.82,2.34-1.66,3.11-2.49,.78-.82,1.23-1.63,1.43-2.22,.19-.6,.19-.96,.24-.96Z"/>
        <path class="cls-19" d="M450.46,226.53s-.14,.03-.41,.05c-.31,.02-.7,.04-1.18,.07-1.04,.05-2.55,.11-4.46,.14-1.91,.03-4.22,.05-6.85,.02-1.31-.01-2.7-.04-4.17-.09-.73-.03-1.48-.06-2.24-.1-.38-.03-.77-.05-1.16-.08l-.59-.06c-.1-.02-.2-.02-.31-.05-.06-.01-.1-.01-.17-.04l-.1-.03s-.19-.13-.2-.22v-.06s0-.04,0-.04c.87-3.95,1.83-8.28,2.84-12.81,.19-.85,.38-1.7,.56-2.53l.04-.17,.18-.03c7.82-1.15,14.94-2.32,19.99-4.42l-.11,.21c-.49-3.5-.88-6.36-1.17-8.4-.12-.95-.22-1.71-.29-2.29-.06-.53-.08-.8-.06-.81,.02,0,.08,.27,.17,.79,.1,.57,.23,1.33,.39,2.28,.33,2.04,.78,4.89,1.34,8.38l.02,.15-.14,.06c-5.09,2.2-12.24,3.42-20.06,4.58l.22-.2c-.18,.83-.37,1.68-.56,2.53-1.02,4.53-1.99,8.86-2.87,12.8l-.21-.06c6.25,.28,11.72,.4,15.52,.4,1.87,0,3.37,0,4.46,0,.48,0,.87,0,1.19,0,.27,0,.41,.01,.41,.03Z"/>
      </g>
      <g>
        <g>
          <polygon class="cls-12" points="453.67 187.52 445.02 208.5 432.28 210.76 428.86 226.1 437.28 226.59 437.21 227.15 404.2 228.09 418.17 187.52 453.67 187.52"/>
          <polygon class="cls-12" points="413.51 180.56 418.17 187.52 404.2 228.09 399.65 220.31 413.51 180.56"/>
          <polygon class="cls-18" points="453.67 187.52 448.57 182.56 413.51 180.56 418.17 187.52 453.67 187.52"/>
          <path class="cls-19" d="M418.17,187.52c.14,.05-2.88,9.17-6.74,20.37-3.86,11.21-7.1,20.25-7.23,20.2s2.88-9.17,6.74-20.37c3.86-11.2,7.09-20.25,7.23-20.2Z"/>
        </g>
        <g>
          <path class="cls-15" d="M431.81,211.92l-6.05-.52s-2.34-3.89-3.88-5.24c-1.54-1.36-9.49-5.16-9.49-5.16,0,0-1.16,1.39,0,2.79,.52,.63,4.28,2.74,4.28,2.74h0c.45,1.55-.89,3.03-2.47,2.73-2.33-.43-5.04-.91-5.4-.91-.4,0-2.72-2.2-4.43-3.87-1.02-1-2.85-.04-2.44,1.33,.04,.14,.11,.26,.2,.34,0,0-2.45-.09-.26,3.21,0,0-.51,3.05,1.29,4.44,0,0,.78,3.68,1.93,4.95,1.15,1.27,12.43,3.68,12.43,3.68l11.75,1.14,2.54-11.66Z"/>
          <path class="cls-9" d="M413.18,212.76c0,.07-.77,.11-2.02,.05-1.23-.08-3.03-.25-4.74-1.25-1.71-1.03-2.68-2.57-3.3-3.63-.62-1.09-.92-1.79-.86-1.83,.07-.04,.48,.61,1.17,1.63,.69,1,1.68,2.43,3.26,3.37,1.58,.92,3.3,1.16,4.51,1.33,1.22,.15,1.99,.24,1.98,.32Z"/>
          <path class="cls-9" d="M412.02,215.37c.01,.07-.7,.23-1.84,.14-.57-.04-1.25-.12-1.99-.29-.73-.18-1.57-.39-2.32-.95-.72-.55-1.25-1.2-1.73-1.78-.43-.53-.84-1.05-1.24-1.55-.7-.89-1.1-1.46-1.05-1.51,.05-.05,.56,.44,1.33,1.27,.38,.41,.84,.91,1.33,1.47,.49,.55,1.03,1.17,1.67,1.67,.63,.48,1.43,.7,2.13,.9,.71,.18,1.36,.31,1.91,.39,1.1,.17,1.79,.15,1.8,.22Z"/>
          <path class="cls-9" d="M410.44,218.28c-.03,.21-2.05-.22-4.43-.88-.4-.09-.64-.34-.87-.53-.23-.2-.43-.42-.61-.62-.37-.42-.66-.82-.87-1.18-.44-.72-.56-1.23-.5-1.26,.07-.03,.3,.41,.8,1.05,.25,.32,.55,.68,.92,1.06,.18,.19,.38,.38,.6,.56,.22,.17,.44,.37,.66,.41,1.22,.33,2.28,.67,3.06,.92,.78,.26,1.24,.41,1.24,.47Z"/>
        </g>
      </g>
    </g>
  </g>
</svg>